<svg width="19" height="24" viewBox="0 0 19 24" fill="none" xmlns="http://www.w3.org/2000/svg">
<path d="M11.9739 24C11.9859 24 11.9976 23.9971 12.0082 23.9915C12.0187 23.9859 12.0277 23.9778 12.0344 23.9679C12.0411 23.958 12.0452 23.9466 12.0465 23.9347C12.0477 23.9228 12.046 23.9108 12.0416 23.8998C11.505 22.5448 11.3822 21.0426 11.5917 19.583C11.907 17.3869 13.1319 15.3384 13.1282 13.1213C13.1251 11.2375 12.2271 9.39252 12.4882 7.52558C12.5989 6.73414 12.9139 5.98494 13.1396 5.21661C13.3653 4.44824 13.4411 3.63608 13.2492 2.858C12.448 -0.38992 8.29409 0.783877 7.61707 2.48005C7.35003 3.14905 6.84814 6.78252 7.74818 7.05913C8.59704 7.31999 9.6214 6.77197 9.6214 7.10614C9.6214 11.4528 5.504 12.6761 4.2155 14.5273C3.94718 14.9127 4.43075 15.8452 5.06623 16.2653C5.0719 16.269 5.07659 16.274 5.0799 16.2799C5.08321 16.2857 5.08505 16.2923 5.08524 16.2991C5.08544 16.3058 5.084 16.3125 5.08104 16.3186C5.07808 16.3246 5.07369 16.3299 5.06825 16.3339C3.41782 17.5441 2.27557 18.7562 2.14925 20.7597C2.07804 21.8894 2.33515 23.095 3.04456 23.9728C3.05853 23.9901 3.07971 24.0001 3.10193 24.0001L11.9739 24Z" fill="#FFCEBF"/>
<path d="M13.1397 5.21653C13.3654 4.44816 13.4412 3.636 13.2493 2.85792C12.7978 1.02797 11.2822 0.601782 9.92371 0.881673C10.7734 1.0808 11.5084 1.67672 11.7997 2.85792C11.9916 3.63605 11.9158 4.4482 11.6901 5.21653C11.4644 5.98491 11.1495 6.73411 11.0388 7.5255C10.7777 9.39239 11.6757 11.2374 11.6788 13.1212C11.6825 15.3383 10.4576 17.3868 10.1423 19.583C9.9328 21.0424 10.0556 22.5445 10.5921 23.8995C10.6112 23.9477 10.5763 24 10.5245 24H11.9741C12.0259 24 12.0607 23.9477 12.0416 23.8995C11.5051 22.5445 11.3824 21.0425 11.5919 19.583C11.9072 17.3868 13.132 15.3383 13.1284 13.1212C13.1253 11.2374 12.2272 9.39244 12.4883 7.5255C12.5991 6.73411 12.914 5.98491 13.1397 5.21653Z" fill="#FFB09E"/>
<path d="M12.0418 23.8996C12.0606 23.9479 12.0259 24 11.9741 24H3.10193C3.07971 24 3.05843 23.9899 3.04493 23.973C2.33515 23.0951 2.07809 21.8893 2.14957 20.7598C2.27567 18.7563 3.41791 17.5442 5.06848 16.334C5.0739 16.33 5.07828 16.3248 5.08124 16.3187C5.08419 16.3127 5.08564 16.306 5.08545 16.2992C5.08526 16.2925 5.08344 16.2859 5.08015 16.28C5.07686 16.2742 5.0722 16.2692 5.06656 16.2655C4.4307 15.8453 3.94751 14.9129 4.21568 14.527C4.64281 13.9132 5.38062 13.369 6.17646 12.7567L6.18274 12.7519C6.3161 12.6567 8.50929 11.1197 12.6994 10.2698C12.6994 10.2698 12.6994 10.2702 12.6999 10.2708C12.8942 11.2163 13.127 12.1637 13.1285 13.1213C13.1319 15.3383 11.907 17.3868 11.592 19.583C11.3823 21.0428 11.505 22.5446 12.0418 23.8996Z" fill="#FEA3C6"/>
<path d="M6.31782 16.1513C6.36465 16.1388 6.39404 16.2002 6.35415 16.2278C6.03221 16.4506 5.42293 16.858 4.96454 17.0786C4.31513 17.391 3.87301 17.5122 2.89941 18.45C3.41499 17.658 4.16584 16.9955 5.06841 16.3339C5.07384 16.3299 5.07822 16.3247 5.08117 16.3186C5.08413 16.3125 5.08557 16.3059 5.08539 16.2991C5.0852 16.2924 5.08338 16.2858 5.08009 16.2799C5.0768 16.274 5.07213 16.269 5.06649 16.2653C5.06654 16.2654 5.6042 16.3428 6.31782 16.1513ZM11.592 19.5829C11.907 17.3866 13.1319 15.3382 13.1285 13.1212C13.127 12.1636 12.8941 11.2162 12.6999 10.2706C12.6994 10.2702 12.6994 10.2697 12.6994 10.2697C12.2357 10.3636 11.7748 10.4708 11.3173 10.5912C11.4943 11.4304 11.6776 12.2718 11.679 13.1212C11.6823 15.3382 10.4574 17.3866 10.1424 19.5828C9.93273 21.0426 10.0555 22.5444 10.5923 23.8994C10.6111 23.9477 10.5764 23.9999 10.5247 23.9999H11.9742C12.0259 23.9999 12.0607 23.9477 12.0419 23.8994C11.505 22.5445 11.3822 21.0427 11.592 19.5829Z" fill="#FE93BB"/>
<path d="M11.1441 0.000355394C11.1441 0.000355394 9.60051 -0.0483946 7.34245 0.996027C7.24309 1.04204 7.15673 1.11205 7.09116 1.19974C7.02559 1.28744 6.98287 1.39007 6.96684 1.49839L6.46949 4.86293C6.4684 4.87035 6.46911 4.87793 6.47155 4.88502C6.47399 4.89211 6.47809 4.89851 6.48352 4.90369C6.48895 4.90887 6.49554 4.91266 6.50274 4.91476C6.50994 4.91686 6.51754 4.91721 6.5249 4.91576L10.7715 4.07961C10.8018 4.0736 10.833 4.07428 10.863 4.08158C10.893 4.08889 10.9211 4.10264 10.9452 4.1219C10.9694 4.14115 10.989 4.16544 11.0028 4.19307C11.0166 4.2207 11.0242 4.251 11.0251 4.28187C11.0476 5.0644 11.284 7.40886 13.3014 7.56579C13.4467 7.57709 13.5542 7.43009 13.4941 7.2972C13.306 6.88118 13.0931 6.00921 13.7519 4.80448C14.6948 3.08028 14.755 0.000355394 11.1441 0.000355394Z" fill="#E19974"/>
<path d="M11.1321 0.000338251C11.1321 0.000338251 10.882 -0.00739612 10.4365 0.0511039C13.279 0.456713 13.1623 3.2101 12.2904 4.80446C11.7863 5.72631 11.7928 6.45301 11.9077 6.92996C12.2351 7.2721 12.6811 7.51839 13.2892 7.56573C13.4347 7.57707 13.5422 7.43003 13.4821 7.29709C13.2941 6.88107 13.0812 6.00915 13.74 4.80442C14.6828 3.08026 14.743 0.000338251 11.1321 0.000338251Z" fill="#DC8758"/>
<path d="M8.16079 13.4133C7.48433 14.7815 7.92023 17.3615 7.77529 19.3971C7.69902 20.4681 7.63166 21.0359 7.58498 21.3335C7.55568 21.5201 7.40554 21.6643 7.21794 21.6876L0.88771 22.4737C0.402647 22.5339 0.0858663 23.0189 0.234366 23.4843C0.265773 23.5828 0.31321 23.6855 0.38146 23.7907C0.423018 23.8549 0.479954 23.9076 0.547091 23.9442C0.614229 23.9807 0.689439 23.9999 0.765882 24H8.61421C9.15946 24 9.63168 23.6224 9.75159 23.0908C10.2329 20.9572 11.3614 15.6786 11.1576 13.9477C10.8999 11.7586 8.83724 12.045 8.16079 13.4133Z" fill="#FFCEBF"/>
<path d="M11.1576 13.9477C10.9724 12.3741 9.85456 12.0797 8.98929 12.5467C9.34728 12.7821 9.62393 13.2328 9.70807 13.9477C9.91184 15.6787 9.32309 20.2934 8.66098 22.7967C8.41938 23.71 7.70993 24 7.16468 24H0.765869H8.6142C9.15945 24 9.63167 23.6224 9.75157 23.0908C10.2329 20.9572 11.3614 15.6786 11.1576 13.9477Z" fill="#FFB09E"/>
<path d="M14.0087 16.4416C14.0635 16.4416 14.1191 16.4288 14.1711 16.4016L15.2824 15.8215C15.3649 15.7784 15.427 15.7043 15.455 15.6154L15.6911 14.866L16.7879 15.4051C16.8342 15.4279 16.8849 15.4402 16.9365 15.4412C16.988 15.4421 17.0392 15.4318 17.0863 15.4107C17.1334 15.3897 17.1753 15.3586 17.209 15.3196C17.2427 15.2805 17.2674 15.2346 17.2814 15.1849L17.4983 14.4144L17.9717 14.1672C18.0544 14.1241 18.1165 14.0499 18.1444 13.9609C18.1724 13.872 18.1638 13.7756 18.1207 13.6929C18.0993 13.652 18.0701 13.6157 18.0347 13.586C17.9993 13.5564 17.9584 13.534 17.9144 13.5202C17.8703 13.5063 17.824 13.5013 17.778 13.5054C17.732 13.5095 17.6873 13.5226 17.6464 13.5439L17.0384 13.8613C16.9959 13.8835 16.9584 13.9142 16.9282 13.9514C16.8979 13.9886 16.8756 14.0316 16.8627 14.0777L16.7191 14.5879L15.6338 14.0544C15.5884 14.032 15.5386 14.0197 15.4879 14.0184C15.4373 14.017 15.387 14.0267 15.3404 14.0467C15.2938 14.0666 15.2521 14.0964 15.2181 14.1339C15.1841 14.1715 15.1586 14.2159 15.1434 14.2643L14.828 15.2655L13.8457 15.7783C13.7631 15.8214 13.701 15.8956 13.673 15.9846C13.6451 16.0736 13.6536 16.17 13.6968 16.2526C13.7265 16.3096 13.7713 16.3574 13.8263 16.3907C13.8813 16.4241 13.9444 16.4417 14.0087 16.4416ZM17.4883 16.8742L17.1695 17.2981L16.3509 16.4086C16.3168 16.3712 16.2748 16.3416 16.2281 16.3221C16.1813 16.3025 16.1309 16.2934 16.0802 16.2954C16.0296 16.2971 15.9799 16.3097 15.9347 16.3324C15.8894 16.3551 15.8495 16.3874 15.8179 16.4269L15.1611 17.2466L14.0595 17.3697C14.0136 17.3748 13.9692 17.3889 13.9288 17.4112C13.8883 17.4335 13.8527 17.4636 13.8239 17.4996C13.7951 17.5357 13.7736 17.5771 13.7608 17.6214C13.748 17.6658 13.744 17.7122 13.7492 17.7581C13.7542 17.804 13.7683 17.8485 13.7906 17.8889C13.8128 17.9294 13.8429 17.9651 13.879 17.9939C13.915 18.0227 13.9565 18.0441 14.0008 18.0569C14.0452 18.0697 14.0917 18.0736 14.1376 18.0684L15.3837 17.9291C15.4762 17.9188 15.5608 17.8722 15.619 17.7996L16.1107 17.1859L16.938 18.0848C16.9729 18.1228 17.0157 18.1526 17.0634 18.1721C17.1112 18.1916 17.1626 18.2004 17.2141 18.1979C17.2656 18.1953 17.3159 18.1815 17.3614 18.1573C17.407 18.1332 17.4467 18.0993 17.4777 18.0581L17.9591 17.418L18.4901 17.3586C18.5359 17.3535 18.5804 17.3394 18.6208 17.3171C18.6612 17.2948 18.6969 17.2647 18.7257 17.2287C18.7545 17.1926 18.7759 17.1512 18.7887 17.1069C18.8016 17.0625 18.8055 17.0161 18.8004 16.9702C18.7789 16.7772 18.6049 16.6381 18.412 16.6599L17.7303 16.7361C17.6827 16.7414 17.6367 16.7564 17.5951 16.7802C17.5535 16.8039 17.5171 16.8359 17.4883 16.8742ZM17.9717 22.9122L17.4983 22.6651L17.2814 21.8946C17.2674 21.8449 17.2427 21.799 17.209 21.7599C17.1753 21.7209 17.1334 21.6898 17.0863 21.6688C17.0392 21.6477 16.988 21.6373 16.9365 21.6383C16.8849 21.6393 16.8342 21.6516 16.7879 21.6744L15.6911 22.2135L15.455 21.464C15.427 21.3751 15.3649 21.301 15.2824 21.2579L14.1711 20.6779C14.1302 20.6565 14.0854 20.6434 14.0394 20.6393C13.9935 20.6352 13.9471 20.6403 13.9031 20.6541C13.859 20.6679 13.8181 20.6903 13.7827 20.72C13.7473 20.7496 13.7181 20.7859 13.6968 20.8269C13.6536 20.9095 13.6451 21.0059 13.673 21.0949C13.701 21.1838 13.7631 21.258 13.8457 21.3012L14.828 21.8139L15.1434 22.8152C15.1586 22.8635 15.1841 22.908 15.2181 22.9456C15.2521 22.9832 15.2938 23.0129 15.3404 23.0329C15.387 23.0528 15.4373 23.0624 15.4879 23.0611C15.5386 23.0598 15.5884 23.0475 15.6338 23.0251L16.7191 22.4916L16.8627 23.0018C16.8756 23.0479 16.8979 23.0909 16.9282 23.1281C16.9584 23.1653 16.9959 23.196 17.0384 23.2181L17.6464 23.5355C17.6965 23.5618 17.7522 23.5755 17.8088 23.5755C17.8875 23.5756 17.964 23.5493 18.026 23.5008C18.088 23.4522 18.1319 23.3843 18.1507 23.3078C18.1694 23.2314 18.162 23.1508 18.1296 23.0791C18.0971 23.0073 18.0415 22.9486 17.9717 22.9122ZM18.4901 19.7208L17.9592 19.6614L17.4777 19.0213C17.4467 18.9801 17.407 18.9462 17.3615 18.9221C17.3159 18.8979 17.2656 18.8841 17.2141 18.8815C17.1626 18.8791 17.1112 18.8879 17.0636 18.9075C17.0159 18.927 16.973 18.9567 16.938 18.9946L16.1107 19.8936L15.6191 19.2799C15.5609 19.2072 15.4762 19.1606 15.3837 19.1503L14.1376 19.011C13.9445 18.9891 13.7707 19.1284 13.7492 19.3213C13.7441 19.3672 13.748 19.4137 13.7609 19.458C13.7737 19.5024 13.7951 19.5437 13.8239 19.5798C13.8527 19.6159 13.8884 19.6459 13.9288 19.6682C13.9692 19.6905 14.0136 19.7046 14.0595 19.7097L15.1612 19.8329L15.8179 20.6525C15.8496 20.6921 15.8894 20.7243 15.9347 20.747C15.98 20.7697 16.0296 20.7824 16.0803 20.7841C16.1309 20.7859 16.1813 20.7766 16.228 20.7571C16.2748 20.7375 16.3167 20.7081 16.351 20.6708L17.1696 19.7813L17.4884 20.2053C17.5172 20.2435 17.5535 20.2755 17.5951 20.2993C17.6367 20.323 17.6828 20.338 17.7304 20.3433L18.4121 20.4195C18.6047 20.4417 18.7789 20.3021 18.8005 20.1092C18.8108 20.0165 18.7839 19.9235 18.7257 19.8507C18.6675 19.7779 18.5828 19.7312 18.4901 19.7208Z" fill="#FE99A0"/>
</svg>
