<svg width="17" height="24" viewBox="0 0 17 24" fill="none" xmlns="http://www.w3.org/2000/svg">
<path d="M16.428 3.73865L14.4175 0.263576C14.224 -0.070924 14.0035 -0.104346 13.7907 0.263435C13.7906 0.263482 13.7906 0.263576 13.7906 0.263576L11.7801 3.73865C10.7416 5.53373 12.0431 7.77562 14.104 7.77886C16.1641 7.77562 17.4666 5.53401 16.428 3.73865ZM13.1674 13.5547L7.96994 4.5712C7.96976 4.57097 7.96948 4.57073 7.96948 4.5705C7.27784 3.3749 6.67915 4.04451 6.44932 4.39687L6.34915 4.57017C6.34887 4.57026 6.34887 4.5705 6.34887 4.5705L1.15123 13.5547C-1.53382 18.1956 1.83124 23.9919 7.15919 24C8.33866 23.9982 9.53374 23.6984 10.6279 23.0653C13.9556 21.14 15.0922 16.8822 13.1674 13.5547Z" fill="#FB5858"/>
<path d="M12.746 3.73861L14.5869 0.556498L14.4174 0.263576C14.2239 -0.070924 14.0034 -0.104346 13.7907 0.263435C13.7906 0.263482 13.7906 0.263576 13.7906 0.263576L11.7801 3.73865C10.6342 5.71931 12.3392 8.14753 14.5869 7.73418C12.7604 7.3979 11.8148 5.34797 12.746 3.73861ZM2.11701 13.5547L7.3147 4.57045C7.3147 4.57045 7.3147 4.57022 7.31498 4.57012L7.41515 4.39683C7.46948 4.31353 7.54472 4.21261 7.63664 4.12265C7.09073 3.58767 6.64139 4.1025 6.44934 4.39683L6.34917 4.57012C6.34889 4.57022 6.34889 4.57045 6.34889 4.57045L1.1512 13.5547C-0.774003 16.8822 0.363045 21.1399 3.69051 23.0652C4.78481 23.6984 5.97979 23.9981 7.15917 23.9999C7.32 23.9997 7.48106 23.9933 7.64208 23.982C2.53462 23.6201 -0.460409 18.0095 2.11701 13.5547Z" fill="#F44545"/>
</svg>
