<svg width="25" height="24" viewBox="0 0 25 24" fill="none" xmlns="http://www.w3.org/2000/svg">
<path d="M17.533 21.2494C16.3631 22.9739 14.4511 24.0408 12.1678 23.9989C7.34027 23.8899 4.44425 18.5726 6.88765 14.4074L11.5788 6.41143C11.8053 6.02453 12.2572 5.89947 12.6294 6.03573C12.8081 6.1007 12.9684 6.22576 13.0773 6.41143L17.7685 14.4075C19.1083 16.691 18.8426 19.3213 17.533 21.2494V21.2494ZM23.7653 7.25007C23.2294 8.48218 22.0407 9.33235 20.5337 9.29518C17.9527 9.2146 16.4208 6.3655 17.7275 4.138L19.9034 0.428697C20.1301 0.0423075 20.582 -0.0832704 20.9541 0.0535106C21.133 0.117964 21.2936 0.243026 21.4022 0.428697L23.5781 4.138C24.1736 5.15298 24.1795 6.29753 23.7653 7.25007H23.7653ZM6.33115 10.9125C5.9104 12.0438 4.85515 12.8815 3.51172 12.8815C1.15077 12.8815 -0.249243 10.3081 0.920943 8.31338L2.84797 5.02844C3.06495 4.65878 3.5128 4.55861 3.85466 4.72816C3.98216 4.79059 4.09456 4.89128 4.17509 5.02844L6.10212 8.31338C6.5974 9.15746 6.63199 10.1021 6.33115 10.9125Z" fill="#F44545"/>
<path d="M17.533 21.2494C16.6347 21.8037 15.5713 22.1402 14.3933 22.1671C9.40671 22.3044 6.2839 16.8521 8.79242 12.5757L12.6294 6.03565C12.8081 6.10067 12.9683 6.22573 13.0773 6.4114L17.7685 14.4075C19.1082 16.691 18.8426 19.3213 17.533 21.2494V21.2494ZM23.7653 7.25004C23.4303 7.37661 23.0653 7.45128 22.6764 7.46333C22.6374 7.46445 22.5973 7.46539 22.5577 7.46539C22.5177 7.46539 22.4781 7.46445 22.4385 7.46337C19.8577 7.38279 18.3252 4.53369 19.6324 2.30675L20.9541 0.0534668C21.133 0.11792 21.2936 0.242982 21.4022 0.428654L23.5782 4.13797C24.1737 5.15295 24.1796 6.2975 23.7653 7.25004ZM6.3311 10.9125C6.07807 10.9922 5.80704 11.0394 5.52181 11.0482C5.45164 11.0504 5.38141 11.0504 5.31124 11.0482C3.02571 10.9769 1.66873 8.45412 2.82593 6.48172L3.8546 4.72812C3.9821 4.79056 4.09451 4.89125 4.17504 5.0284L6.10207 8.31336C6.59735 9.15744 6.63195 10.1021 6.3311 10.9125Z" fill="#FB5858"/>
</svg>
