<svg width="21" height="24" viewBox="0 0 21 24" fill="none" xmlns="http://www.w3.org/2000/svg">
<path d="M17.5186 3.85244C19.9147 4.78657 21.2478 7.35181 20.6354 9.84991C20.617 9.92525 20.6074 10.0025 20.6074 10.0798V12.4987C20.6074 12.7939 20.5212 13.0827 20.3593 13.3296C20.1975 13.5766 19.9671 13.7708 19.6963 13.8886L16.4946 15.2818L16.3357 17.4316L16.2734 18.4102C16.1671 20.0819 16.4869 21.7531 17.2027 23.2673L17.2531 23.3737C17.3908 23.6647 17.1785 24 16.8566 24H4.19175C3.86978 24 3.65755 23.6647 3.7953 23.3737L3.84568 23.2673C4.56151 21.753 4.88126 20.0818 4.77498 18.4102L4.71267 17.4316L4.14707 14.8471L1.394 13.8536C1.10071 13.7477 0.8472 13.554 0.668012 13.2989C0.488824 13.0437 0.392679 12.7395 0.392682 12.4277V10.0798C0.392682 10.0025 0.383022 9.92525 0.364668 9.84991C-0.247781 7.35181 1.08531 4.78657 3.48149 3.85244L7.48753 2.29041C7.6933 2.21017 7.87006 2.06969 7.99468 1.88734C8.11929 1.705 8.18596 1.48928 8.18596 1.26842V0.319652C8.18596 0.234875 8.21963 0.15357 8.27958 0.093624C8.33953 0.0336775 8.42083 0 8.50561 0L12.4945 0C12.5792 0 12.6605 0.0336775 12.7205 0.093624C12.7804 0.15357 12.8141 0.234875 12.8141 0.319652V1.26837C12.8141 1.72041 13.0914 2.12618 13.5126 2.29045L17.5186 3.85244Z" fill="#FFE5C2"/>
<path d="M2.99467 13.4938V11.1159C2.99467 11.0376 2.98501 10.9593 2.96666 10.883C2.35421 8.35293 3.6873 5.75485 6.08349 4.80874L10.0895 3.22671C10.5107 3.06041 10.7879 2.64947 10.7879 2.19168V1.23079C10.7879 1.05198 10.9311 0.907034 11.1076 0.907034H12.8141V0.319652C12.8141 0.234875 12.7804 0.15357 12.7205 0.093624C12.6605 0.0336775 12.5792 0 12.4945 0L8.50561 0C8.42083 0 8.33953 0.0336775 8.27958 0.093624C8.21963 0.15357 8.18596 0.234875 8.18596 0.319652V1.26842C8.18595 1.48927 8.11928 1.70498 7.99466 1.88732C7.87005 2.06965 7.6933 2.21013 7.48753 2.29036L3.48149 3.85239C1.08531 4.78652 -0.247781 7.35176 0.364668 9.84986C0.383022 9.92521 0.392682 10.0025 0.392682 10.0798V12.4277C0.392693 12.7395 0.488843 13.0437 0.668029 13.2989C0.847215 13.554 1.10072 13.7477 1.394 13.8536L3.4599 14.5991C3.31254 14.4552 3.19547 14.2833 3.11557 14.0935C3.03567 13.9037 2.99456 13.6998 2.99467 13.4938Z" fill="#FED2A4"/>
<path d="M1.34844 16.9733C1.28999 16.9733 1.2324 16.9593 1.18058 16.9322C1.12876 16.9052 1.08427 16.866 1.0509 16.818C0.889028 16.5852 0.743147 16.3417 0.614269 16.0891C0.572338 16.0037 0.565647 15.9053 0.595639 15.8151C0.625631 15.7248 0.689901 15.65 0.77458 15.6067C0.85926 15.5634 0.957558 15.5552 1.04826 15.5837C1.13897 15.6123 1.21481 15.6754 1.25942 15.7594C1.37334 15.9827 1.50227 16.198 1.64534 16.4039C1.67253 16.4429 1.69177 16.4869 1.70196 16.5334C1.71215 16.5798 1.71308 16.6279 1.70471 16.6747C1.69634 16.7215 1.67883 16.7662 1.65318 16.8063C1.62753 16.8463 1.59424 16.881 1.55521 16.9081C1.4946 16.9506 1.42241 16.9733 1.34844 16.9733Z" fill="#EFEDEF"/>
<path d="M7.72516 19.2243C7.63755 19.2243 7.55291 19.1926 7.4869 19.135C7.42088 19.0774 7.37798 18.9978 7.36613 18.911C7.35427 18.8242 7.37427 18.7361 7.42243 18.6629C7.47058 18.5897 7.54362 18.5365 7.62803 18.513C7.68483 18.4972 7.74148 18.4809 7.79785 18.4633L8.52289 18.2355C8.71392 18.1755 8.91712 18.2817 8.97706 18.4726C9.037 18.6634 8.93088 18.8668 8.74 18.9267L8.01496 19.1544C7.94406 19.1767 7.87499 19.1963 7.82272 19.2109C7.79096 19.2198 7.75814 19.2243 7.72516 19.2243Z" fill="#F9F7F8"/>
<path d="M6.91691 15.7972V16.7212L6.74901 15.9441L4.18175 15.0059L4.71262 17.4316L4.77493 18.4102C4.88119 20.0818 4.56144 21.753 3.84563 23.2673L3.79525 23.3737C3.65755 23.6647 3.86978 24 4.19175 24H6.65227C7.22438 22.5907 7.47207 21.0708 7.37697 19.5529L7.33838 19.0006C7.31915 18.7257 7.49385 18.477 7.75695 18.3947L7.76149 18.3933L9.34608 17.8957C9.72765 17.7757 10.1241 17.7149 10.5242 17.7149C10.9243 17.7149 11.3207 17.7757 11.7026 17.8958L13.2874 18.3935C13.8074 18.5568 14.3493 18.64 14.8944 18.6401C15.3626 18.6401 15.8253 18.5776 16.2711 18.4583C16.272 18.4423 16.2724 18.4263 16.2734 18.4102L16.3357 17.4316L16.4565 15.7972H6.91691Z" fill="#FED2A4"/>
<path d="M5.99485 19.4379L5.98466 19.4377C5.67063 19.4289 5.35773 19.396 5.0487 19.3395C5.0019 19.3309 4.95725 19.3132 4.91728 19.2874C4.87732 19.2616 4.84284 19.2282 4.8158 19.189C4.78876 19.1499 4.76969 19.1058 4.75969 19.0593C4.74968 19.0128 4.74894 18.9648 4.75749 18.918C4.76605 18.8712 4.78374 18.8265 4.80956 18.7865C4.83537 18.7466 4.8688 18.7121 4.90794 18.6851C4.94708 18.658 4.99117 18.639 5.03768 18.6289C5.08419 18.6189 5.13221 18.6182 5.17901 18.6268C5.45164 18.6766 5.72767 18.7056 6.00471 18.7135C6.05226 18.7148 6.09909 18.7255 6.14253 18.7449C6.18596 18.7643 6.22514 18.7921 6.25784 18.8266C6.29054 18.8612 6.31611 18.9018 6.33309 18.9463C6.35007 18.9907 6.35814 19.0381 6.35682 19.0856C6.3542 19.1799 6.31493 19.2694 6.24734 19.3352C6.17975 19.401 6.08917 19.4378 5.99485 19.4379Z" fill="#F9F7F8"/>
<path d="M3.46818 18.8283C3.41043 18.8283 3.35354 18.8144 3.30227 18.7879C2.96281 18.6126 2.64002 18.4068 2.3379 18.173C2.26235 18.114 2.21327 18.0275 2.2014 17.9324C2.18953 17.8373 2.21584 17.7413 2.27456 17.6656C2.33329 17.5898 2.41964 17.5404 2.51471 17.5282C2.60978 17.516 2.70582 17.542 2.78178 17.6004C3.04896 17.8072 3.33444 17.9892 3.63467 18.1442C3.72003 18.1882 3.78438 18.2644 3.81356 18.356C3.84274 18.4475 3.83438 18.5469 3.79029 18.6322C3.75979 18.6913 3.71359 18.7409 3.65677 18.7755C3.59995 18.8101 3.5347 18.8284 3.46818 18.8283ZM19.6516 16.9733C19.5776 16.9733 19.5054 16.9506 19.4448 16.9082C19.4058 16.881 19.3725 16.8464 19.3468 16.8063C19.3212 16.7663 19.3037 16.7216 19.2953 16.6747C19.2869 16.6279 19.2879 16.5799 19.298 16.5334C19.3082 16.487 19.3275 16.443 19.3547 16.4039C19.4977 16.1981 19.6267 15.9827 19.7406 15.7594C19.7843 15.6739 19.8602 15.6092 19.9516 15.5796C20.043 15.55 20.1425 15.558 20.228 15.6017C20.3136 15.6454 20.3782 15.7213 20.4078 15.8127C20.4374 15.9041 20.4295 16.0036 20.3857 16.0891C20.2569 16.3417 20.111 16.5852 19.9491 16.8181C19.9157 16.8661 19.8712 16.9052 19.8194 16.9323C19.7676 16.9593 19.71 16.9734 19.6516 16.9733Z" fill="#EFEDEF"/>
<path d="M13.2748 19.2242C13.2426 19.2242 13.2099 19.2199 13.1773 19.2109C13.113 19.1931 13.0489 19.1742 12.9851 19.1544L12.2601 18.9267C12.2147 18.9125 12.1725 18.8894 12.1361 18.8589C12.0996 18.8283 12.0695 18.7909 12.0475 18.7488C12.0255 18.7066 12.012 18.6605 12.0078 18.6131C12.0036 18.5657 12.0087 18.518 12.023 18.4726C12.0372 18.4272 12.0603 18.3851 12.0908 18.3486C12.1214 18.3121 12.1588 18.282 12.2009 18.26C12.2431 18.238 12.2892 18.2245 12.3366 18.2203C12.384 18.2161 12.4317 18.2213 12.4771 18.2355L13.2022 18.4632C13.2585 18.4809 13.3152 18.4972 13.372 18.513C13.4564 18.5364 13.5294 18.5897 13.5776 18.6629C13.6257 18.7361 13.6457 18.8242 13.6339 18.911C13.622 18.9978 13.5791 19.0774 13.5131 19.135C13.4471 19.1925 13.3624 19.2243 13.2748 19.2242ZM15.0051 19.4829C14.9108 19.4829 14.8202 19.4461 14.7526 19.3803C14.6851 19.3145 14.6458 19.225 14.6432 19.1307C14.6419 19.0831 14.6499 19.0358 14.6669 18.9913C14.6839 18.9469 14.7095 18.9062 14.7422 18.8717C14.7749 18.8371 14.8141 18.8094 14.8575 18.79C14.9009 18.7705 14.9478 18.7599 14.9953 18.7586C15.2723 18.7507 15.5484 18.7217 15.821 18.6718C15.9155 18.6546 16.013 18.6756 16.092 18.7302C16.1711 18.7848 16.2252 18.8685 16.2425 18.963C16.2598 19.0575 16.2388 19.155 16.1842 19.2341C16.1296 19.3131 16.0458 19.3673 15.9513 19.3846C15.6423 19.4411 15.3294 19.4739 15.0154 19.4828C15.0119 19.4829 15.0085 19.4829 15.0051 19.4829Z" fill="#F9F7F8"/>
<path d="M17.5319 18.8284C17.4653 18.8284 17.4001 18.8101 17.3432 18.7755C17.2864 18.7409 17.2402 18.6914 17.2097 18.6322C17.1656 18.5469 17.1572 18.4475 17.1864 18.356C17.2156 18.2644 17.28 18.1882 17.3653 18.1441C17.6656 17.9892 17.951 17.8072 18.2182 17.6004C18.2942 17.542 18.3902 17.516 18.4853 17.5282C18.5804 17.5404 18.6667 17.5898 18.7254 17.6656C18.7842 17.7413 18.8105 17.8373 18.7986 17.9324C18.7867 18.0275 18.7376 18.114 18.6621 18.173C18.36 18.4069 18.0372 18.6126 17.6977 18.7878C17.6465 18.8145 17.5896 18.8284 17.5319 18.8284Z" fill="#EFEDEF"/>
<path d="M9.28544 15.0833C9.19059 15.0831 9.09966 15.0455 9.03249 14.9785C8.88536 14.8335 8.87938 14.5922 9.01911 14.4395L9.41735 14.0044C9.87857 13.5005 10.1326 12.8401 10.1326 12.1451C10.1326 11.4239 9.86195 10.7459 9.37054 10.2359L8.96125 9.8112C8.81779 9.66234 8.81774 9.42093 8.96125 9.27207C9.1047 9.12316 9.33731 9.12321 9.48076 9.27202L9.89006 9.69673C10.5203 10.3507 10.8673 11.2202 10.8673 12.1451C10.8673 13.0364 10.5416 13.8832 9.95005 14.5295L9.55181 14.9646C9.47965 15.0435 9.38262 15.0833 9.28544 15.0833Z" fill="#FED2A4"/>
<path d="M11.7146 15.0833C11.6174 15.0833 11.5204 15.0435 11.4482 14.9646L11.05 14.5295C10.4585 13.8832 10.1327 13.0364 10.1327 12.1451C10.1327 11.2203 10.4798 10.3507 11.11 9.69678L11.5193 9.27202C11.6627 9.12316 11.8953 9.12321 12.0388 9.27207C12.1823 9.42093 12.1822 9.66234 12.0388 9.8112L11.6295 10.2359C11.1381 10.7459 10.8674 11.4239 10.8674 12.1451C10.8674 12.8401 11.1214 13.5005 11.5827 14.0044L11.9809 14.4395C12.1206 14.5922 12.1146 14.8335 11.9675 14.9785C11.9004 15.0455 11.8095 15.0831 11.7146 15.0833Z" fill="#FED2A4"/>
<path d="M18.4299 10.6464C19.5993 12.2205 19.5863 14.3785 18.3981 15.9386C17.5499 17.052 16.2444 17.6741 14.8944 17.6741C14.4548 17.6741 14.0109 17.6079 13.5762 17.4717L11.992 16.9742C11.0366 16.6738 10.0117 16.6738 9.05628 16.9742L7.47203 17.4717C5.7023 18.0271 3.77415 17.4142 2.6502 15.9386C2.05031 15.1513 1.74988 14.2114 1.74988 13.271C1.74988 12.3485 2.0392 11.4259 2.61832 10.6464L4.76286 7.75847L5.3555 2.87723C5.37965 2.68016 5.50717 2.51063 5.69023 2.43335L6.01384 2.29714C6.40507 2.13147 6.82915 2.45073 6.77892 2.87288L6.17227 7.96181C7.06815 8.77629 7.79958 9.75497 8.32695 10.8449C8.85422 11.9349 9.16771 13.1159 9.25045 14.3239C9.26736 14.5708 9.37845 14.7896 9.54702 14.947C9.71558 15.1045 9.94163 15.2001 10.1884 15.2001H10.8598C11.3539 15.2001 11.764 14.8171 11.7978 14.3239C11.9646 11.8855 13.0676 9.60597 14.876 7.96181L14.2693 2.87288C14.2191 2.45073 14.6432 2.13147 15.0344 2.29714L15.358 2.43335C15.5411 2.51063 15.6686 2.68016 15.6928 2.87723L16.2854 7.75847L18.4299 10.6464Z" fill="#FEAEE1"/>
<path d="M19.2971 13.1755C19.1477 13.7157 18.8963 14.2222 18.5565 14.6679C17.7083 15.7813 16.4028 16.4034 15.0528 16.4034C14.6132 16.4034 14.1694 16.3372 13.7347 16.201L12.1504 15.7035C11.195 15.4031 10.1701 15.4031 9.21471 15.7035L7.63046 16.201C6.88135 16.4364 6.08284 16.4666 5.31807 16.2886C4.95466 16.2042 4.62911 15.9968 4.40268 15.7003L4.3992 15.6958C3.79931 14.9085 3.49888 13.9686 3.49888 13.0281C3.49888 12.1056 3.7882 11.1831 4.36733 10.4035L6.17714 7.96635L6.17227 7.96181L6.77892 2.87288C6.82915 2.45073 6.40507 2.13147 6.01384 2.29714L5.69023 2.43335C5.50717 2.51063 5.37966 2.68016 5.3555 2.87723L4.76286 7.75847L2.61832 10.6464C2.05403 11.405 1.74947 12.3255 1.74988 13.271C1.74988 14.2114 2.05031 15.1513 2.6502 15.9386C3.77415 17.4142 5.7023 18.0271 7.47203 17.4717L9.05628 16.9742C10.0117 16.6738 11.0366 16.6738 11.992 16.9742L13.5762 17.4717C14.0109 17.6079 14.4548 17.6741 14.8944 17.6741C16.2444 17.6741 17.5499 17.052 18.3981 15.9386C19.0182 15.1244 19.3182 14.1475 19.2971 13.1755Z" fill="#FE93D3"/>
</svg>
