<svg width="21" height="20" viewBox="0 0 21 20" fill="none" xmlns="http://www.w3.org/2000/svg">
<g clip-path="url(#clip0_8481_3535)">
<path d="M19.744 3.21933V6.31792H1.7561V3.21933C1.7561 2.75615 2.01687 2.35374 2.39997 2.15173C2.57346 2.05966 2.76694 2.0117 2.96335 2.01209H18.5368C19 2.01209 19.4024 2.27285 19.6044 2.65595C19.6965 2.82944 19.7444 3.02292 19.744 3.21933Z" fill="#FD646F"/>
<path d="M6.58508 2.01208V4.26561C6.58508 4.48774 6.4048 4.66802 6.18266 4.66802H4.33156C4.10942 4.66802 3.92914 4.48774 3.92914 4.26561V2.01208H6.58508ZM16.9271 2.01208V4.26561C16.9271 4.48774 16.7468 4.66802 16.5247 4.66802H14.6736C14.4515 4.66802 14.2712 4.48774 14.2712 4.26561V2.01208H16.9271ZM2.39997 2.15172V6.31792H1.7561V3.21933C1.7561 2.75615 2.01687 2.35373 2.39997 2.15172Z" fill="#FC4755"/>
<path d="M5.05594 8.7251H7.12637C7.17973 8.7251 7.23091 8.7463 7.26864 8.78403C7.30637 8.82176 7.32757 8.87294 7.32757 8.9263V10.9967C7.32757 11.0501 7.30637 11.1013 7.26864 11.139C7.23091 11.1767 7.17973 11.1979 7.12637 11.1979H5.05594C5.00258 11.1979 4.9514 11.1767 4.91367 11.139C4.87593 11.1013 4.85474 11.0501 4.85474 10.9967V8.9263C4.85474 8.87294 4.87593 8.82176 4.91367 8.78403C4.9514 8.7463 5.00258 8.7251 5.05594 8.7251ZM5.05594 11.8016H7.12637C7.17973 11.8016 7.23091 11.8228 7.26864 11.8605C7.30637 11.8982 7.32757 11.9494 7.32757 12.0028V14.0736C7.32757 14.127 7.30637 14.1781 7.26864 14.2159C7.23091 14.2536 7.17973 14.2748 7.12637 14.2748H5.05594C5.00258 14.2748 4.9514 14.2536 4.91367 14.2159C4.87593 14.1781 4.85474 14.127 4.85474 14.0736V12.0028C4.85474 11.9494 4.87593 11.8982 4.91367 11.8605C4.9514 11.8228 5.00258 11.8016 5.05594 11.8016ZM5.05594 14.8784H7.12637C7.17973 14.8784 7.23091 14.8996 7.26864 14.9373C7.30637 14.9751 7.32757 15.0263 7.32757 15.0796V17.15C7.32757 17.2034 7.30637 17.2546 7.26864 17.2923C7.23091 17.3301 7.17973 17.3513 7.12637 17.3513H5.05594C5.00258 17.3513 4.9514 17.3301 4.91367 17.2923C4.87593 17.2546 4.85474 17.2034 4.85474 17.15V15.0796C4.85474 15.0263 4.87593 14.9751 4.91367 14.9373C4.9514 14.8996 5.00258 14.8784 5.05594 14.8784ZM8.1324 8.7251H10.2471C10.3005 8.7251 10.3516 8.7463 10.3894 8.78403C10.4271 8.82176 10.4483 8.87294 10.4483 8.9263V10.9967C10.4483 11.0501 10.4271 11.1013 10.3894 11.139C10.3516 11.1767 10.3005 11.1979 10.2471 11.1979H8.1324C8.07904 11.1979 8.02786 11.1767 7.99013 11.139C7.95239 11.1013 7.9312 11.0501 7.9312 10.9967V8.9263C7.9312 8.87294 7.95239 8.82176 7.99013 8.78403C8.02786 8.7463 8.07904 8.7251 8.1324 8.7251ZM8.1324 11.8016H10.2471C10.3005 11.8016 10.3516 11.8228 10.3894 11.8605C10.4271 11.8982 10.4483 11.9494 10.4483 12.0028V14.0736C10.4483 14.127 10.4271 14.1781 10.3894 14.2159C10.3516 14.2536 10.3005 14.2748 10.2471 14.2748H8.1324C8.07904 14.2748 8.02786 14.2536 7.99013 14.2159C7.95239 14.1781 7.9312 14.127 7.9312 14.0736V12.0028C7.9312 11.9494 7.95239 11.8982 7.99013 11.8605C8.02786 11.8228 8.07904 11.8016 8.1324 11.8016ZM8.1324 14.8784H10.2471C10.3005 14.8784 10.3516 14.8996 10.3894 14.9373C10.4271 14.9751 10.4483 15.0263 10.4483 15.0796V17.15C10.4483 17.2034 10.4271 17.2546 10.3894 17.2923C10.3516 17.3301 10.3005 17.3513 10.2471 17.3513H8.1324C8.07904 17.3513 8.02786 17.3301 7.99013 17.2923C7.95239 17.2546 7.9312 17.2034 7.9312 17.15V15.0796C7.9312 15.0263 7.95239 14.9751 7.99013 14.9373C8.02786 14.8996 8.07904 14.8784 8.1324 14.8784ZM11.2531 8.7251H13.3678C13.4212 8.7251 13.4724 8.7463 13.5101 8.78403C13.5478 8.82176 13.569 8.87294 13.569 8.9263V10.9967C13.569 11.0501 13.5478 11.1013 13.5101 11.139C13.4724 11.1767 13.4212 11.1979 13.3678 11.1979H11.2531C11.1998 11.1979 11.1486 11.1767 11.1109 11.139C11.0731 11.1013 11.0519 11.0501 11.0519 10.9967V8.9263C11.0519 8.87294 11.0731 8.82176 11.1109 8.78403C11.1486 8.7463 11.1998 8.7251 11.2531 8.7251ZM11.2531 11.8016H13.3678C13.4212 11.8016 13.4724 11.8228 13.5101 11.8605C13.5478 11.8982 13.569 11.9494 13.569 12.0028V14.0736C13.569 14.127 13.5478 14.1781 13.5101 14.2159C13.4724 14.2536 13.4212 14.2748 13.3678 14.2748H11.2531C11.1998 14.2748 11.1486 14.2536 11.1109 14.2159C11.0731 14.1781 11.0519 14.127 11.0519 14.0736V12.0028C11.0519 11.9494 11.0731 11.8982 11.1109 11.8605C11.1486 11.8228 11.1998 11.8016 11.2531 11.8016ZM11.2531 14.8784H13.3678C13.4212 14.8784 13.4724 14.8996 13.5101 14.9373C13.5478 14.9751 13.569 15.0263 13.569 15.0796V17.15C13.569 17.2034 13.5478 17.2546 13.5101 17.2923C13.4724 17.3301 13.4212 17.3513 13.3678 17.3513H11.2531C11.1998 17.3513 11.1486 17.3301 11.1109 17.2923C11.0731 17.2546 11.0519 17.2034 11.0519 17.15V15.0796C11.0519 15.0263 11.0731 14.9751 11.1109 14.9373C11.1486 14.8996 11.1998 14.8784 11.2531 14.8784ZM16.6455 8.9263V10.9967C16.6455 11.0501 16.6243 11.1013 16.5865 11.139C16.5488 11.1767 16.4976 11.1979 16.4443 11.1979H14.3739C14.3205 11.1979 14.2693 11.1767 14.2316 11.139C14.1938 11.1013 14.1726 11.0501 14.1726 10.9967V8.9263C14.1726 8.87294 14.1938 8.82176 14.2316 8.78403C14.2693 8.7463 14.3205 8.7251 14.3739 8.7251H16.4443C16.4976 8.7251 16.5488 8.7463 16.5865 8.78403C16.6243 8.82176 16.6455 8.87294 16.6455 8.9263ZM14.3739 11.8016H16.4443C16.4976 11.8016 16.5488 11.8228 16.5865 11.8605C16.6243 11.8982 16.6455 11.9494 16.6455 12.0028V14.0736C16.6455 14.127 16.6243 14.1781 16.5865 14.2159C16.5488 14.2536 16.4976 14.2748 16.4443 14.2748H14.3739C14.3205 14.2748 14.2693 14.2536 14.2316 14.2159C14.1938 14.1781 14.1726 14.127 14.1726 14.0736V12.0028C14.1726 11.9494 14.1938 11.8982 14.2316 11.8605C14.2693 11.8228 14.3205 11.8016 14.3739 11.8016ZM14.3739 14.8784H16.4443C16.4976 14.8784 16.5488 14.8996 16.5865 14.9373C16.6243 14.9751 16.6455 15.0263 16.6455 15.0796V17.15C16.6455 17.2034 16.6243 17.2546 16.5865 17.2923C16.5488 17.3301 16.4976 17.3513 16.4443 17.3513H14.3739C14.3205 17.3513 14.2693 17.3301 14.2316 17.2923C14.1938 17.2546 14.1726 17.2034 14.1726 17.15V15.0796C14.1726 15.0263 14.1938 14.9751 14.2316 14.9373C14.2693 14.8996 14.3205 14.8784 14.3739 14.8784Z" fill="#E6E6E6"/>
<path d="M1.7561 6.03625V18.7928C1.7561 19.4596 2.29655 20 2.96335 20H18.5368C19.2036 20 19.744 19.4596 19.744 18.7928V6.03625H1.7561Z" fill="#F5F5F5"/>
<path d="M6.58507 0.402414V3.62173C6.58507 3.84386 6.40479 4.02414 6.18266 4.02414H4.97541C4.75328 4.02414 4.573 3.84386 4.573 3.62173V0.402414C4.573 0.180282 4.75328 0 4.97541 0H6.18266C6.40479 0 6.58507 0.180282 6.58507 0.402414Z" fill="#50758D"/>
<path d="M4.85474 8.7251H7.32757V11.1979H4.85474V8.7251ZM14.1726 8.7251H16.6455V11.1979H14.1726V8.7251ZM7.9312 8.7251H10.4483V11.1979H7.9312V8.7251ZM4.85474 11.8016H7.32757V14.2748H4.85474V11.8016Z" fill="#FFAC5C"/>
<path d="M14.1726 11.8016H16.6454V14.2749H14.1726V11.8016Z" fill="#E6E6E6"/>
<path d="M7.93115 11.8016H10.4483V14.2749H7.93115V11.8016Z" fill="#FFAC5C"/>
<path d="M4.85474 14.8784H7.32757V17.3513H4.85474V14.8784ZM14.1726 14.8784H16.6455V17.3513H14.1726V14.8784ZM7.9312 14.8784H10.4483V17.3513H7.9312V14.8784Z" fill="#E6E6E6"/>
<path d="M11.0518 8.7251H13.5689V11.1979H11.0518V8.7251ZM11.0518 11.8016H13.5689V14.2748H11.0518V11.8016Z" fill="#FFAC5C"/>
<path d="M11.0518 14.8784H13.5689V17.3513H11.0518V14.8784Z" fill="#E6E6E6"/>
<path d="M16.9271 0.402414V3.62173C16.9271 3.84386 16.7468 4.02414 16.5247 4.02414H15.3175C15.0953 4.02414 14.915 3.84386 14.915 3.62173V0.402414C14.915 0.180282 15.0953 0 15.3175 0H16.5247C16.7468 0 16.9271 0.180282 16.9271 0.402414Z" fill="#50758D"/>
<path d="M1.7561 6.03625V18.7928C1.7561 19.4596 2.29655 20 2.96335 20H3.40922C2.84624 19.8978 2.42009 19.4053 2.42009 18.8129V6.89018C2.44291 6.82853 2.48407 6.77534 2.53803 6.73779C2.59199 6.70023 2.65616 6.68011 2.7219 6.68012H19.744V6.03625H1.7561Z" fill="#E6E6E6"/>
<path d="M5.61928 4.02414H4.97541C4.75328 4.02414 4.573 3.84386 4.573 3.62173V0.402414C4.573 0.180282 4.75328 0 4.97541 0H5.21686V3.62173C5.21686 3.84386 5.39714 4.02414 5.61928 4.02414ZM15.9613 4.02414H15.3175C15.0953 4.02414 14.915 3.84386 14.915 3.62173V0.402414C14.915 0.180282 15.0953 0 15.3175 0H15.5589V3.62173C15.5589 3.84386 15.7392 4.02414 15.9613 4.02414Z" fill="#2B597F"/>
</g>
<defs>
<clipPath id="clip0_8481_3535">
<rect width="20" height="20" fill="white" transform="translate(0.75)"/>
</clipPath>
</defs>
</svg>
