<svg width="20" height="20" viewBox="0 0 20 20" fill="none" xmlns="http://www.w3.org/2000/svg">
<path fill-rule="evenodd" clip-rule="evenodd" d="M6 0C6.55228 0 7 0.447715 7 1V2L13 2V1C13 0.447715 13.4477 0 14 0C14.5523 0 15 0.447715 15 1V2H16C18.2091 2 20 3.79086 20 6V18C20 19.1046 19.1046 20 18 20H2C0.895431 20 0 19.1046 0 18V6C0 3.79086 1.79086 2 4 2H5V1C5 0.447715 5.44772 0 6 0ZM13 4V5C13 5.55228 13.4477 6 14 6C14.5523 6 15 5.55228 15 5V4H16C17.1046 4 18 4.89543 18 6V8L2 8L2 6C2 4.89543 2.89543 4 4 4H5V5C5 5.55228 5.44772 6 6 6C6.55229 6 7 5.55228 7 5V4L13 4ZM2 10L18 10V18H2L2 10Z" fill="black"/>
</svg>
