<svg width="25" height="24" viewBox="0 0 25 24" fill="none" xmlns="http://www.w3.org/2000/svg">
<g clip-path="url(#clip0_8535_2387)">
<path d="M1.00423 16.0272C0.902846 16.6562 0.851794 17.2924 0.851562 17.9295C0.851562 18.7189 0.930547 19.4899 1.08022 20.2352L1.70937 23.3661C1.72537 23.4457 1.76845 23.5173 1.83128 23.5688C1.89411 23.6202 1.97283 23.6484 2.05405 23.6483H11.2867C11.5359 23.6483 11.7069 23.3958 11.613 23.165C9.91072 18.978 5.80259 16.0275 1.00423 16.0272Z" fill="#FFCEA3"/>
<path d="M23.9957 16.0272C23.5247 16.0272 23.0541 16.056 22.5866 16.1134L21.8004 23.6483H22.9467C23.028 23.6483 23.1067 23.6202 23.1695 23.5687C23.2324 23.5173 23.2754 23.4456 23.2914 23.366L23.9197 20.2352C24.072 19.4761 24.1486 18.7037 24.1483 17.9295C24.1483 17.2858 24.0959 16.6511 23.9957 16.0272Z" fill="#FFB590"/>
<path d="M22.7422 17.9296C22.7422 17.3174 22.6901 16.7117 22.5867 16.1134C18.4044 16.6268 14.9202 19.3943 13.3871 23.1648C13.2932 23.3957 13.4641 23.6484 13.7133 23.6484H21.8005L22.541 19.9585C22.6749 19.2905 22.7423 18.6109 22.7422 17.9296Z" fill="#FFCEA3"/>
<path d="M23.2334 13.3162H21.7015L22.5866 16.1134C23.0541 16.056 23.5247 16.0272 23.9957 16.0272C23.8463 15.097 23.5896 14.1909 23.2334 13.3162Z" fill="#ACD5DF"/>
<path d="M1.76655 13.3162C1.4104 14.1909 1.15366 15.0971 1.00427 16.0272C5.24576 16.0275 8.94743 18.3332 10.9254 21.7601C11.3748 22.0643 11.9166 22.2421 12.5001 22.2421C13.0836 22.2421 13.6254 22.0643 14.0747 21.7601C15.8302 18.7187 18.9435 16.5607 22.5867 16.1134C22.4219 15.16 22.1264 14.2259 21.7016 13.3162H1.76655Z" fill="#D9F5FF"/>
<path d="M21.9126 10.8427L20.6179 8.93433C20.2347 8.36951 20.0699 7.6846 20.1544 7.0073L20.9351 0.746625C20.9612 0.536812 20.7976 0.351562 20.5862 0.351562H19.5672L13.8292 9.72384L21.8331 13.6091C22.3013 13.5183 22.7681 13.4207 23.2335 13.3162C22.8847 12.4597 22.4417 11.6329 21.9126 10.8427Z" fill="#FFB590"/>
<path d="M19.4542 9.72389C18.8793 8.87673 18.6321 7.84931 18.759 6.83334L19.5672 0.351562H4.4137C4.20229 0.351562 4.0387 0.536813 4.06485 0.746625L4.84551 7.00734C4.92997 7.68465 4.76523 8.36956 4.38201 8.93438L3.08728 10.8427C2.55825 11.633 2.11523 12.4597 1.76648 13.3162C8.36437 14.7999 15.2034 14.8973 21.8331 13.6092C21.5406 12.9353 21.1784 12.2743 20.7463 11.6283L19.4542 9.72389Z" fill="#FFCEA3"/>
<path d="M12.5 7.78125C12.8883 7.78125 13.2031 7.46645 13.2031 7.07812C13.2031 6.6898 12.8883 6.375 12.5 6.375C12.1117 6.375 11.7969 6.6898 11.7969 7.07812C11.7969 7.46645 12.1117 7.78125 12.5 7.78125Z" fill="#FFB590"/>
<path d="M0.60298 9.52137C0.570331 9.48872 0.544433 9.44996 0.526764 9.40731C0.509094 9.36465 0.5 9.31893 0.5 9.27276C0.5 9.22659 0.509094 9.18088 0.526764 9.13822C0.544433 9.09557 0.570331 9.05681 0.60298 9.02416L1.59734 8.0298C1.62998 7.99715 1.66874 7.97126 1.7114 7.95359C1.75405 7.93592 1.79977 7.92682 1.84594 7.92682C1.89211 7.92682 1.93783 7.93592 1.98048 7.95359C2.02314 7.97126 2.0619 7.99715 2.09454 8.0298L2.34312 8.27838L3.0889 7.5326C3.15483 7.46667 3.24426 7.42963 3.3375 7.42963C3.43075 7.42963 3.52017 7.46667 3.5861 7.5326C3.65204 7.59853 3.68908 7.68796 3.68908 7.7812C3.68908 7.87444 3.65204 7.96387 3.5861 8.0298L2.59175 9.02416C2.5591 9.05681 2.52034 9.08271 2.47769 9.10038C2.43503 9.11805 2.38931 9.12714 2.34314 9.12714C2.29697 9.12714 2.25126 9.11805 2.2086 9.10038C2.16595 9.08271 2.12719 9.05681 2.09454 9.02416L1.84596 8.77558L1.10018 9.52137C1.06754 9.55401 1.02878 9.57991 0.986124 9.59758C0.943469 9.61525 0.897751 9.62435 0.851581 9.62435C0.805411 9.62435 0.759693 9.61525 0.717038 9.59758C0.674383 9.57991 0.635626 9.55401 0.60298 9.52137ZM1.59734 6.1264L0.60298 5.13204C0.537046 5.0661 0.500005 4.97668 0.500005 4.88344C0.500005 4.79019 0.537046 4.70077 0.60298 4.63483C0.668913 4.5689 0.758338 4.53186 0.851581 4.53186C0.944825 4.53186 1.03425 4.5689 1.10018 4.63483L1.84596 5.38062L2.09454 5.13204C2.12719 5.09939 2.16595 5.07349 2.2086 5.05582C2.25126 5.03815 2.29697 5.02906 2.34314 5.02906C2.38931 5.02906 2.43503 5.03815 2.47769 5.05582C2.52034 5.07349 2.5591 5.09939 2.59175 5.13204L3.5861 6.1264C3.65204 6.19233 3.68908 6.28175 3.68908 6.375C3.68908 6.46824 3.65204 6.55767 3.5861 6.6236C3.52017 6.68953 3.43075 6.72657 3.3375 6.72657C3.24426 6.72657 3.15483 6.68953 3.0889 6.6236L2.34312 5.87782L2.09454 6.1264C2.0619 6.15905 2.02314 6.18494 1.98048 6.20261C1.93783 6.22028 1.89211 6.22938 1.84594 6.22938C1.79977 6.22938 1.75405 6.22028 1.7114 6.20261C1.66874 6.18494 1.62998 6.15905 1.59734 6.1264Z" fill="#FF5D34"/>
<path d="M21.4139 6.6236C21.3812 6.59095 21.3553 6.5522 21.3377 6.50954C21.32 6.46689 21.3109 6.42117 21.3109 6.375C21.3109 6.32883 21.32 6.28311 21.3377 6.24046C21.3553 6.1978 21.3812 6.15904 21.4139 6.1264L22.4083 5.13204C22.4409 5.09939 22.4797 5.07349 22.5223 5.05582C22.565 5.03815 22.6107 5.02906 22.6569 5.02906C22.703 5.02906 22.7487 5.03815 22.7914 5.05582C22.8341 5.07349 22.8728 5.09939 22.9055 5.13204L23.154 5.38062L23.8998 4.63483C23.9657 4.5689 24.0552 4.53186 24.1484 4.53186C24.2417 4.53186 24.3311 4.5689 24.397 4.63483C24.463 4.70077 24.5 4.79019 24.5 4.88344C24.5 4.97668 24.463 5.0661 24.397 5.13204L23.4027 6.1264C23.37 6.15905 23.3313 6.18494 23.2886 6.20261C23.2459 6.22028 23.2002 6.22938 23.1541 6.22938C23.1079 6.22938 23.0622 6.22028 23.0195 6.20261C22.9769 6.18494 22.9381 6.15905 22.9055 6.1264L22.6569 5.87782L21.9111 6.6236C21.8784 6.65625 21.8397 6.68215 21.797 6.69982C21.7544 6.71749 21.7087 6.72658 21.6625 6.72658C21.6163 6.72658 21.5706 6.71749 21.528 6.69982C21.4853 6.68215 21.4465 6.65625 21.4139 6.6236ZM22.4083 9.02426L21.4139 8.0299C21.348 7.96396 21.3109 7.87454 21.3109 7.7813C21.3109 7.68805 21.348 7.59863 21.4139 7.53269C21.4798 7.46676 21.5693 7.42972 21.6625 7.42972C21.7557 7.42972 21.8452 7.46676 21.9111 7.53269L22.6569 8.27847L22.9055 8.0299C22.9381 7.99725 22.9769 7.97135 23.0195 7.95368C23.0622 7.93601 23.1079 7.92692 23.1541 7.92692C23.2002 7.92692 23.2459 7.93601 23.2886 7.95368C23.3313 7.97135 23.37 7.99725 23.4027 8.0299L24.397 9.02426C24.463 9.09019 24.5 9.17961 24.5 9.27286C24.5 9.3661 24.463 9.45553 24.397 9.52146C24.3311 9.58739 24.2417 9.62443 24.1484 9.62443C24.0552 9.62443 23.9657 9.58739 23.8998 9.52146L23.154 8.77568L22.9055 9.02426C22.8728 9.0569 22.8341 9.0828 22.7914 9.10047C22.7487 9.11814 22.703 9.12724 22.6569 9.12724C22.6107 9.12724 22.565 9.11814 22.5223 9.10047C22.4797 9.0828 22.4409 9.0569 22.4083 9.02426Z" fill="#FF3E3A"/>
</g>
<defs>
<clipPath id="clip0_8535_2387">
<rect width="24" height="24" fill="white" transform="translate(0.5)"/>
</clipPath>
</defs>
</svg>
