<svg width="18" height="18" viewBox="0 0 18 18" fill="none" xmlns="http://www.w3.org/2000/svg">
<g clip-path="url(#clip0_8493_2203)">
<path fill-rule="evenodd" clip-rule="evenodd" d="M4.83325 5.66675V4.83342C4.83325 2.53223 6.69873 0.666748 8.99992 0.666748C11.3011 0.666748 13.1666 2.53223 13.1666 4.83342V5.66675H13.9999C14.9204 5.66675 15.6666 6.41294 15.6666 7.33342V15.6667C15.6666 16.5872 14.9204 17.3334 13.9999 17.3334H3.99992C3.07944 17.3334 2.33325 16.5872 2.33325 15.6667V7.33342C2.33325 6.41294 3.07944 5.66675 3.99992 5.66675H4.83325ZM6.49992 4.83342C6.49992 3.4527 7.61921 2.33341 8.99992 2.33341C10.3806 2.33341 11.4999 3.4527 11.4999 4.83342V5.66675H6.49992V4.83342ZM8.99992 9.62508C9.57522 9.62508 10.0416 10.0915 10.0416 10.6667V12.3334C10.0416 12.9087 9.57522 13.3751 8.99992 13.3751C8.42462 13.3751 7.95825 12.9087 7.95825 12.3334V10.6667C7.95825 10.0915 8.42462 9.62508 8.99992 9.62508Z" fill="url(#paint0_linear_8493_2203)"/>
</g>
<defs>
<linearGradient id="paint0_linear_8493_2203" x1="8.99992" y1="0.666748" x2="8.99992" y2="17.3334" gradientUnits="userSpaceOnUse">
<stop stop-color="#50D4FB"/>
<stop offset="1" stop-color="#3AA5E3"/>
</linearGradient>
<clipPath id="clip0_8493_2203">
<rect width="16.6667" height="16.6667" fill="white" transform="translate(0.666626 0.666748)"/>
</clipPath>
</defs>
</svg>
