<svg width="18" height="18" viewBox="0 0 18 18" fill="none" xmlns="http://www.w3.org/2000/svg">
<g clip-path="url(#clip0_8493_2362)">
<path fill-rule="evenodd" clip-rule="evenodd" d="M8.99996 2.33341C5.31806 2.33341 2.33329 5.31818 2.33329 9.00008C2.33329 9.46032 1.9602 9.83342 1.49996 9.83342C1.03972 9.83342 0.666626 9.46032 0.666626 9.00008C0.666626 4.39771 4.39758 0.666748 8.99996 0.666748C13.6023 0.666748 17.3333 4.39771 17.3333 9.00008C17.3333 13.6025 13.6023 17.3334 8.99996 17.3334C8.99064 17.3334 8.98133 17.3334 8.97201 17.3334C6.71125 17.3259 4.66302 16.418 3.16663 14.9511L3.16664 15.6668C3.16664 16.127 2.79355 16.5001 2.33331 16.5001C1.87307 16.5001 1.49997 16.127 1.49997 15.6668L1.49995 12.4565C1.49388 12.149 1.65895 11.8499 1.95061 11.6991C2.14954 11.5963 2.37071 11.5814 2.56973 11.6403L5.84379 12.3525C6.29351 12.4503 6.57878 12.8942 6.48096 13.3439C6.38313 13.7936 5.93926 14.0789 5.48954 13.9811L4.2923 13.7207C4.45274 13.8807 4.62126 14.0325 4.79721 14.1756C5.71223 14.9195 6.82805 15.4254 8.05043 15.5997C8.36059 15.6439 8.67761 15.6667 8.99996 15.6667C12.6819 15.6667 15.6666 12.682 15.6666 9.00008C15.6666 5.31818 12.6819 2.33341 8.99996 2.33341ZM8.99996 4.00008C9.4602 4.00008 9.83329 4.37318 9.83329 4.83341V8.16675H13.1666C13.6269 8.16675 14 8.53984 14 9.00008C14 9.46032 13.6269 9.83341 13.1666 9.83341H8.99996C8.53972 9.83341 8.16663 9.46032 8.16663 9.00008V4.83341C8.16663 4.37318 8.53972 4.00008 8.99996 4.00008Z" fill="url(#paint0_linear_8493_2362)"/>
</g>
<defs>
<linearGradient id="paint0_linear_8493_2362" x1="8.99996" y1="0.666748" x2="8.99996" y2="17.3334" gradientUnits="userSpaceOnUse">
<stop stop-color="#50D4FB"/>
<stop offset="1" stop-color="#3AA5E3"/>
</linearGradient>
<clipPath id="clip0_8493_2362">
<rect width="16.6667" height="16.6667" fill="white" transform="translate(17.3334 17.3333) rotate(180)"/>
</clipPath>
</defs>
</svg>
