<svg width="18" height="18" viewBox="0 0 18 18" fill="none" xmlns="http://www.w3.org/2000/svg">
<g clip-path="url(#clip0_8493_2368)">
<path fill-rule="evenodd" clip-rule="evenodd" d="M5.87496 7.33342C5.87496 6.98824 6.15478 6.70842 6.49996 6.70842H7.12496V6.08342C7.12496 5.04788 7.96443 4.20841 8.99996 4.20841C10.0355 4.20841 10.875 5.04788 10.875 6.08342V6.70842H11.5C11.8451 6.70842 12.125 6.98824 12.125 7.33342V10.6667C12.125 11.0119 11.8451 11.2917 11.5 11.2917H6.49996C6.15478 11.2917 5.87496 11.0119 5.87496 10.6667V7.33342ZM9.62496 6.70842V6.08342C9.62496 5.73824 9.34514 5.45842 8.99996 5.45842C8.65478 5.45842 8.37496 5.73824 8.37496 6.08342V6.70842H9.62496ZM10.875 7.95842V10.0417H7.12496V7.95842H10.875Z" fill="url(#paint0_linear_8493_2368)"/>
<path fill-rule="evenodd" clip-rule="evenodd" d="M8.68906 0.726916C8.88856 0.646692 9.11136 0.646692 9.31086 0.726916L16.8109 3.74279C17.1265 3.86971 17.3333 4.17575 17.3333 4.51595C17.3333 5.66224 16.8743 7.95065 15.6853 10.3696C14.4875 12.8068 12.5117 15.4532 9.41341 17.2236C9.15722 17.37 8.8427 17.37 8.58651 17.2236C5.48827 15.4532 3.51244 12.8068 2.31457 10.3696C1.12566 7.95065 0.666626 5.66224 0.666626 4.51595C0.666626 4.17575 0.87342 3.86971 1.18906 3.74279L8.68906 0.726916ZM2.37 5.06428C2.48759 6.07713 2.90165 7.78563 3.81034 9.63449C4.84803 11.7458 6.49805 13.9725 8.99996 15.5299C11.5019 13.9725 13.1519 11.7458 14.1896 9.63449C15.0983 7.78563 15.5123 6.07713 15.6299 5.06428L8.99996 2.39827L2.37 5.06428Z" fill="url(#paint1_linear_8493_2368)"/>
</g>
<defs>
<linearGradient id="paint0_linear_8493_2368" x1="8.99996" y1="0.666748" x2="8.99996" y2="17.3334" gradientUnits="userSpaceOnUse">
<stop stop-color="#50D4FB"/>
<stop offset="1" stop-color="#3AA5E3"/>
</linearGradient>
<linearGradient id="paint1_linear_8493_2368" x1="8.99996" y1="0.666748" x2="8.99996" y2="17.3334" gradientUnits="userSpaceOnUse">
<stop stop-color="#50D4FB"/>
<stop offset="1" stop-color="#3AA5E3"/>
</linearGradient>
<clipPath id="clip0_8493_2368">
<rect width="16.6667" height="16.6667" fill="white" transform="translate(0.666626 0.666748)"/>
</clipPath>
</defs>
</svg>
