<svg width="20" height="20" viewBox="0 0 20 20" fill="none" xmlns="http://www.w3.org/2000/svg">
<path d="M10 20C15.5228 20 20 15.5228 20 10C20 4.47715 15.5228 0 10 0C4.47715 0 0 4.47715 0 10C0 15.5228 4.47715 20 10 20Z" fill="url(#paint0_linear_8493_2380)"/>
<path d="M13.5809 6.05234V6.05039H11.9402V5.51211C11.9402 5.40892 11.9199 5.30674 11.8804 5.2114C11.8409 5.11607 11.783 5.02946 11.71 4.95651C11.637 4.88356 11.5504 4.8257 11.455 4.78625C11.3597 4.74679 11.2575 4.72651 11.1543 4.72656H8.8457C8.63736 4.72656 8.43756 4.80933 8.29024 4.95664C8.14292 5.10396 8.06016 5.30377 8.06016 5.51211V6.05039H6.41953V6.05234C6.15271 6.06847 5.9021 6.18582 5.71887 6.38045C5.53564 6.57508 5.4336 6.8323 5.43359 7.09961V7.13203C5.4336 7.39934 5.53564 7.65656 5.71887 7.85119C5.9021 8.04582 6.15271 8.16317 6.41953 8.1793V13.7469C6.41953 14.1517 6.58031 14.5399 6.86651 14.8262C7.15271 15.1125 7.5409 15.2733 7.9457 15.2734H12.0543C12.4592 15.2734 12.8475 15.1126 13.1337 14.8263C13.42 14.54 13.5809 14.1517 13.5809 13.7469V8.1793C13.8477 8.16317 14.0983 8.04582 14.2815 7.85119C14.4647 7.65656 14.5668 7.39934 14.5668 7.13203V7.09961C14.5668 6.8323 14.4647 6.57508 14.2815 6.38045C14.0983 6.18582 13.8477 6.06847 13.5809 6.05234ZM9.14922 12.9074C9.14927 12.968 9.13739 13.028 9.11424 13.0839C9.0911 13.1399 9.05716 13.1908 9.01435 13.2336C8.97154 13.2765 8.92071 13.3104 8.86476 13.3336C8.80882 13.3568 8.74885 13.3687 8.68828 13.3687C8.56593 13.3687 8.44859 13.3201 8.36207 13.2336C8.27556 13.1471 8.22695 13.0298 8.22695 12.9074V9.3918C8.22695 9.26944 8.27556 9.1521 8.36207 9.06559C8.44859 8.97907 8.56593 8.93047 8.68828 8.93047C8.74885 8.93047 8.80882 8.9424 8.86476 8.96559C8.92071 8.98878 8.97154 9.02277 9.01435 9.06561C9.05716 9.10846 9.0911 9.15932 9.11424 9.21528C9.13739 9.27125 9.14927 9.33123 9.14922 9.3918V12.9074ZM11.773 12.9074C11.773 13.0298 11.7244 13.1471 11.6379 13.2336C11.5514 13.3201 11.4341 13.3687 11.3117 13.3687C11.2512 13.3687 11.1912 13.3568 11.1352 13.3336C11.0793 13.3104 11.0285 13.2765 10.9856 13.2336C10.9428 13.1908 10.9089 13.1399 10.8858 13.0839C10.8626 13.028 10.8507 12.968 10.8508 12.9074V9.3918C10.8507 9.33123 10.8626 9.27125 10.8858 9.21528C10.9089 9.15932 10.9428 9.10846 10.9856 9.06561C11.0285 9.02277 11.0793 8.98878 11.1352 8.96559C11.1912 8.9424 11.2512 8.93047 11.3117 8.93047C11.4341 8.93047 11.5514 8.97907 11.6379 9.06559C11.7244 9.1521 11.773 9.26944 11.773 9.3918V12.9074Z" fill="white"/>
<defs>
<linearGradient id="paint0_linear_8493_2380" x1="10" y1="0" x2="10" y2="20" gradientUnits="userSpaceOnUse">
<stop stop-color="#50D4FB"/>
<stop offset="1" stop-color="#3AA5E3"/>
</linearGradient>
</defs>
</svg>
