<svg width="14" height="20" viewBox="0 0 14 20" fill="none" xmlns="http://www.w3.org/2000/svg">
<path d="M13.6066 3.11555L11.9311 0.219647C11.7699 -0.0591034 11.5861 -0.0869549 11.4088 0.219529C11.4087 0.219569 11.4087 0.219647 11.4087 0.219647L9.73334 3.11555C8.86787 4.61144 9.95252 6.47969 11.6699 6.48238C13.3867 6.47969 14.4721 4.61168 13.6066 3.11555ZM10.8894 11.2956L6.55818 3.80933C6.55803 3.80914 6.55779 3.80894 6.55779 3.80875C5.98143 2.81242 5.48252 3.37043 5.291 3.66406L5.20752 3.80847C5.20729 3.80855 5.20729 3.80875 5.20729 3.80875L0.87592 11.2956C-1.36162 15.163 1.4426 19.9932 5.88256 20C6.86545 19.9985 7.86135 19.7487 8.77318 19.2211C11.5462 17.6166 12.4934 14.0685 10.8894 11.2956Z" fill="url(#paint0_linear_8493_2243)"/>
<defs>
<linearGradient id="paint0_linear_8493_2243" x1="6.99994" y1="0" x2="6.99994" y2="20" gradientUnits="userSpaceOnUse">
<stop stop-color="#50D4FB"/>
<stop offset="1" stop-color="#3AA5E3"/>
</linearGradient>
</defs>
</svg>
