<svg width="20" height="20" viewBox="0 0 20 20" fill="none" xmlns="http://www.w3.org/2000/svg">
<g clip-path="url(#clip0_8493_1898)">
<path d="M19.5727 4.02852C19.1965 2.33008 17.55 0.774223 15.8469 0.443754C14.809 0.236333 11.9141 -0.0199174 10 4.52087e-06C8.08594 -0.0210892 5.19141 0.23438 4.15352 0.442583C2.45039 0.774223 0.803906 2.33008 0.429687 4.02852C0.213672 5.05977 0.003125 6.4629 0 8.37813C0.003125 10.2922 0.213672 11.6957 0.429687 12.7273C0.805859 14.4258 2.45234 15.9816 4.15547 16.3121C4.71562 16.4238 5.81758 16.5504 7.01367 16.6395C7.14909 16.8522 7.29622 17.0788 7.45508 17.3191C8.08984 18.2809 8.57539 18.9508 8.94375 19.4176C9.55625 20.1941 10.4477 20.1941 11.0602 19.4176C11.4285 18.9508 11.9141 18.2809 12.5488 17.3191C12.7077 17.079 12.8548 16.8525 12.9902 16.6395C14.1867 16.5504 15.2883 16.4238 15.8488 16.3121C17.552 15.9816 19.1984 14.4258 19.5746 12.7273C19.7887 11.6957 19.9988 10.293 20.0023 8.37813C19.9969 6.4625 19.7867 5.06016 19.5727 4.02852Z" fill="url(#paint0_linear_8493_1898)"/>
<path d="M10 4.52087e-06C8.08594 -0.0210892 5.19141 0.23438 4.15352 0.442583C2.45039 0.774223 0.803906 2.33008 0.429688 4.02852C0.213672 5.05977 0.003125 6.4629 0 8.37813C0.003125 10.2922 0.213672 11.6957 0.429688 12.7273C0.651172 13.727 1.31289 14.6773 2.16719 15.3574C3.00051 15.5569 3.85445 15.6575 4.71133 15.657C10.7125 15.657 15.5773 10.7922 15.5773 4.79141C15.5787 3.22864 15.2416 1.68411 14.5891 0.264067C13.2543 0.114067 11.3746 -0.014058 10 4.52087e-06Z" fill="url(#paint1_linear_8493_1898)"/>
<path d="M11.1047 14.1852C11.0788 14.3069 11.0182 14.4184 10.9302 14.5064C10.8423 14.5944 10.7307 14.655 10.609 14.6809C10.2055 14.7429 9.79495 14.7429 9.39146 14.6809C9.26977 14.655 9.15819 14.5944 9.07021 14.5064C8.98224 14.4185 8.92164 14.3069 8.89575 14.1852C8.83325 13.7816 8.83325 13.3708 8.89575 12.9672C8.92164 12.8455 8.98224 12.734 9.07021 12.646C9.15819 12.558 9.26977 12.4974 9.39146 12.4715C9.79495 12.4096 10.2055 12.4096 10.609 12.4715C10.7309 12.4976 10.8426 12.5584 10.9306 12.6467C11.0186 12.735 11.0791 12.8468 11.1047 12.9688C11.1672 13.3724 11.1672 13.7832 11.1047 14.1868V14.1852ZM13.4829 7.78716C13.1813 8.21372 12.7293 8.60317 12.0606 9.01216C11.2141 9.53403 11.0786 9.74849 11.0786 10.1684V10.3344C11.0813 10.478 11.0554 10.6206 11.0023 10.754C10.9493 10.8874 10.8702 11.0089 10.7696 11.1114C10.6691 11.2139 10.5491 11.2953 10.4168 11.3508C10.2844 11.4064 10.1423 11.435 9.99868 11.435C9.85512 11.435 9.71299 11.4064 9.58062 11.3508C9.44824 11.2953 9.32827 11.2139 9.22773 11.1114C9.12718 11.0089 9.04807 10.8874 8.99503 10.754C8.94199 10.6206 8.91607 10.478 8.9188 10.3344V9.94966C8.9188 9.45435 9.04263 9.03403 9.29732 8.66489C9.54419 8.30708 9.9145 7.98911 10.4629 7.66294C11.4743 7.06802 11.6594 6.73403 11.6594 6.29067C11.6594 5.73364 11.1848 5.37349 10.4485 5.37349C9.64419 5.37349 9.12036 5.73911 8.89185 6.4606C8.81781 6.6927 8.67151 6.89506 8.47433 7.03814C8.27714 7.18122 8.03938 7.25752 7.79575 7.25591C7.76763 7.25591 7.73911 7.25591 7.71138 7.25278C7.53636 7.24045 7.36648 7.18829 7.21469 7.10028C7.06291 7.01227 6.93325 6.89074 6.8356 6.74497C6.73804 6.6018 6.6745 6.43821 6.64986 6.26672C6.62522 6.09523 6.64011 5.92037 6.69341 5.75552C6.92778 5.00427 7.40846 4.35392 8.05786 3.90942C8.71255 3.46333 9.53951 3.22778 10.4485 3.22778C11.3926 3.22778 12.2688 3.52896 12.9157 4.07583C13.5817 4.63833 13.9481 5.4145 13.9481 6.26099C13.9501 6.84302 13.7973 7.3438 13.4829 7.78716Z" fill="white"/>
</g>
<defs>
<linearGradient id="paint0_linear_8493_1898" x1="10.0012" y1="-0.0012207" x2="10.0012" y2="20" gradientUnits="userSpaceOnUse">
<stop stop-color="#50D4FB"/>
<stop offset="1" stop-color="#3AA5E3"/>
</linearGradient>
<linearGradient id="paint1_linear_8493_1898" x1="7.78867" y1="-0.0012207" x2="7.78867" y2="15.657" gradientUnits="userSpaceOnUse">
<stop stop-color="#50D4FB"/>
<stop offset="1" stop-color="#3AA5E3"/>
</linearGradient>
<clipPath id="clip0_8493_1898">
<rect width="20" height="20" fill="white"/>
</clipPath>
</defs>
</svg>
