<svg width="20" height="20" viewBox="0 0 20 20" fill="none" xmlns="http://www.w3.org/2000/svg">
<path d="M18.759 4.51135C18.4098 2.53401 16.6141 0.738302 14.6367 0.390646C13.4375 0.189474 11.8039 0.00236501 9.57386 2.12619e-05C7.34378 -0.00232249 5.71097 0.189474 4.51136 0.390646C2.53401 0.738302 0.73831 2.53401 0.390654 4.51135C0.189482 5.71096 0.00276321 7.34377 2.8833e-05 9.57385C-0.00270554 11.8039 0.189482 13.4375 0.390654 14.6367C0.739873 16.6141 2.53597 18.4098 4.51292 18.759C5.71292 18.9586 7.34573 19.1457 9.57542 19.1496C11.8051 19.1535 13.4383 18.9602 14.6383 18.759C16.6157 18.4098 18.4114 16.6141 18.7606 14.6367C18.9602 13.4371 19.1469 11.8039 19.1512 9.57385C19.1555 7.34377 18.9586 5.71135 18.759 4.51135Z" fill="url(#paint0_linear_8493_2078)"/>
<path d="M0.416826 14.7762C1.77272 15.3592 3.23347 15.659 4.7094 15.6571C10.7106 15.6571 15.5754 10.7922 15.5754 4.79143C15.5778 3.27579 15.262 1.77653 14.6485 0.390646H14.6387C13.4375 0.189474 11.8039 0.00236501 9.57386 2.12619e-05C7.34378 -0.00232249 5.71097 0.189474 4.51136 0.390646C2.53401 0.738303 0.73831 2.53401 0.390654 4.51135C0.189482 5.71096 0.00276321 7.34377 2.8833e-05 9.57385C-0.00270554 11.8039 0.189482 13.4375 0.390654 14.6367C0.397294 14.6836 0.40706 14.7297 0.416826 14.7762Z" fill="#48A4DF"/>
<path d="M4.84695 4.62573H14.3059C14.5997 4.62573 14.8815 4.74245 15.0893 4.9502C15.297 5.15796 15.4137 5.43973 15.4137 5.73354C15.4137 6.02736 15.297 6.30913 15.0893 6.51689C14.8815 6.72464 14.5997 6.84136 14.3059 6.84136H4.84695C4.55314 6.84136 4.27136 6.72464 4.06361 6.51689C3.85585 6.30913 3.73914 6.02736 3.73914 5.73354C3.73914 5.43973 3.85585 5.15796 4.06361 4.9502C4.27136 4.74245 4.55314 4.62573 4.84695 4.62573ZM4.84695 11.4679C4.55314 11.4679 4.27136 11.3512 4.06361 11.1434C3.85585 10.9357 3.73914 10.6539 3.73914 10.3601C3.73914 10.0663 3.85585 9.78452 4.06361 9.57677C4.27136 9.36901 4.55314 9.2523 4.84695 9.2523H10.3997C10.6935 9.2523 10.9753 9.36901 11.183 9.57677C11.3908 9.78452 11.5075 10.0663 11.5075 10.3601C11.5075 10.6539 11.3908 10.9357 11.183 11.1434C10.9753 11.3512 10.6935 11.4679 10.3997 11.4679H4.84695Z" fill="white"/>
<path d="M16.0187 12.0376C15.2313 12.0376 14.4616 12.2711 13.8069 12.7086C13.1521 13.146 12.6419 13.7678 12.3405 14.4953C12.0392 15.2228 11.9604 16.0233 12.114 16.7956C12.2676 17.5678 12.6468 18.2772 13.2036 18.834C13.7603 19.3908 14.4697 19.77 15.242 19.9236C16.0143 20.0772 16.8148 19.9984 17.5423 19.697C18.2698 19.3957 18.8916 18.8854 19.329 18.2307C19.7665 17.576 20 16.8063 20 16.0188C20 14.963 19.5805 13.9503 18.8339 13.2037C18.0873 12.457 17.0746 12.0376 16.0187 12.0376Z" fill="#DD4247"/>
<path d="M16.7379 18.3771C16.721 18.4563 16.6815 18.529 16.6242 18.5862C16.5668 18.6435 16.4941 18.6829 16.4149 18.6997C16.1522 18.7403 15.8849 18.7403 15.6223 18.6997C15.5431 18.6828 15.4705 18.6434 15.4132 18.5861C15.3559 18.5289 15.3165 18.4563 15.2996 18.3771C15.259 18.1144 15.259 17.8471 15.2996 17.5845C15.3165 17.5053 15.3559 17.4326 15.4132 17.3754C15.4705 17.3181 15.5431 17.2787 15.6223 17.2618C15.8849 17.2212 16.1522 17.2212 16.4149 17.2618C16.4941 17.2786 16.5668 17.318 16.6242 17.3753C16.6815 17.4326 16.721 17.5052 16.7379 17.5845C16.7785 17.8471 16.7785 18.1144 16.7379 18.3771ZM16.7684 16.0017C16.7684 16.1985 16.6902 16.3873 16.551 16.5265C16.4118 16.6657 16.223 16.7438 16.0262 16.7438C15.8294 16.7438 15.6406 16.6657 15.5014 16.5265C15.3622 16.3873 15.284 16.1985 15.284 16.0017V14.0435C15.284 13.8466 15.3622 13.6578 15.5014 13.5187C15.6406 13.3795 15.8294 13.3013 16.0262 13.3013C16.223 13.3013 16.4118 13.3795 16.551 13.5187C16.6902 13.6578 16.7684 13.8466 16.7684 14.0435V16.0017Z" fill="white"/>
<defs>
<linearGradient id="paint0_linear_8493_2078" x1="9.57563" y1="0" x2="9.57563" y2="19.1497" gradientUnits="userSpaceOnUse">
<stop stop-color="#50D4FB"/>
<stop offset="1" stop-color="#3AA5E3"/>
</linearGradient>
</defs>
</svg>
