<svg width="18" height="18" viewBox="0 0 18 18" fill="none" xmlns="http://www.w3.org/2000/svg">
<path d="M5.24992 1.08333C5.24992 0.623096 4.87682 0.25 4.41659 0.25C3.95635 0.25 3.58325 0.623096 3.58325 1.08333V1.91667C3.58325 2.3769 3.95635 2.75 4.41659 2.75C4.87682 2.75 5.24992 2.3769 5.24992 1.91667V1.08333Z" fill="url(#paint0_linear_8493_2491)"/>
<path d="M14.4167 1.08333C14.4167 0.623096 14.0436 0.25 13.5833 0.25C13.1231 0.25 12.75 0.623096 12.75 1.08333V1.91667C12.75 2.3769 13.1231 2.75 13.5833 2.75C14.0436 2.75 14.4167 2.3769 14.4167 1.91667V1.08333Z" fill="url(#paint1_linear_8493_2491)"/>
<path d="M0.666626 6.5V16.0833C0.666626 16.5254 0.842221 16.9493 1.15478 17.2618C1.46734 17.5744 1.89127 17.75 2.33329 17.75H15.6666C16.1087 17.75 16.5326 17.5744 16.8451 17.2618C17.1577 16.9493 17.3333 16.5254 17.3333 16.0833V6.5H0.666626ZM5.66663 14.8333C5.66663 15.0543 5.57883 15.2663 5.42255 15.4226C5.26627 15.5789 5.05431 15.6667 4.83329 15.6667H3.99996C3.77895 15.6667 3.56698 15.5789 3.4107 15.4226C3.25442 15.2663 3.16663 15.0543 3.16663 14.8333V14C3.16663 13.779 3.25442 13.567 3.4107 13.4107C3.56698 13.2545 3.77895 13.1667 3.99996 13.1667H4.83329C5.05431 13.1667 5.26627 13.2545 5.42255 13.4107C5.57883 13.567 5.66663 13.779 5.66663 14V14.8333ZM5.66663 10.25C5.66663 10.471 5.57883 10.683 5.42255 10.8393C5.26627 10.9955 5.05431 11.0833 4.83329 11.0833H3.99996C3.77895 11.0833 3.56698 10.9955 3.4107 10.8393C3.25442 10.683 3.16663 10.471 3.16663 10.25V9.41667C3.16663 9.19565 3.25442 8.98369 3.4107 8.82741C3.56698 8.67113 3.77895 8.58333 3.99996 8.58333H4.83329C5.05431 8.58333 5.26627 8.67113 5.42255 8.82741C5.57883 8.98369 5.66663 9.19565 5.66663 9.41667V10.25ZM10.25 14.8333C10.25 15.0543 10.1622 15.2663 10.0059 15.4226C9.8496 15.5789 9.63764 15.6667 9.41663 15.6667H8.58329C8.36228 15.6667 8.15032 15.5789 7.99404 15.4226C7.83776 15.2663 7.74996 15.0543 7.74996 14.8333V14C7.74996 13.779 7.83776 13.567 7.99404 13.4107C8.15032 13.2545 8.36228 13.1667 8.58329 13.1667H9.41663C9.63764 13.1667 9.8496 13.2545 10.0059 13.4107C10.1622 13.567 10.25 13.779 10.25 14V14.8333ZM10.25 10.25C10.25 10.471 10.1622 10.683 10.0059 10.8393C9.8496 10.9955 9.63764 11.0833 9.41663 11.0833H8.58329C8.36228 11.0833 8.15032 10.9955 7.99404 10.8393C7.83776 10.683 7.74996 10.471 7.74996 10.25V9.41667C7.74996 9.19565 7.83776 8.98369 7.99404 8.82741C8.15032 8.67113 8.36228 8.58333 8.58329 8.58333H9.41663C9.63764 8.58333 9.8496 8.67113 10.0059 8.82741C10.1622 8.98369 10.25 9.19565 10.25 9.41667V10.25ZM14.8333 14.8333C14.8333 15.0543 14.7455 15.2663 14.5892 15.4226C14.4329 15.5789 14.221 15.6667 14 15.6667H13.1666C12.9456 15.6667 12.7337 15.5789 12.5774 15.4226C12.4211 15.2663 12.3333 15.0543 12.3333 14.8333V14C12.3333 13.779 12.4211 13.567 12.5774 13.4107C12.7337 13.2545 12.9456 13.1667 13.1666 13.1667H14C14.221 13.1667 14.4329 13.2545 14.5892 13.4107C14.7455 13.567 14.8333 13.779 14.8333 14V14.8333ZM14.8333 10.25C14.8333 10.471 14.7455 10.683 14.5892 10.8393C14.4329 10.9955 14.221 11.0833 14 11.0833H13.1666C12.9456 11.0833 12.7337 10.9955 12.5774 10.8393C12.4211 10.683 12.3333 10.471 12.3333 10.25V9.41667C12.3333 9.19565 12.4211 8.98369 12.5774 8.82741C12.7337 8.67113 12.9456 8.58333 13.1666 8.58333H14C14.221 8.58333 14.4329 8.67113 14.5892 8.82741C14.7455 8.98369 14.8333 9.19565 14.8333 9.41667V10.25ZM17.3333 5.66667V3.16667C17.3333 2.72464 17.1577 2.30072 16.8451 1.98816C16.5326 1.67559 16.1087 1.5 15.6666 1.5H15.25V1.91667C15.25 2.83583 14.5025 3.58333 13.5833 3.58333C12.6641 3.58333 11.9166 2.83583 11.9166 1.91667V1.5H6.08329V1.91667C6.08329 2.83583 5.33579 3.58333 4.41663 3.58333C3.49746 3.58333 2.74996 2.83583 2.74996 1.91667V1.5H2.33329C1.89127 1.5 1.46734 1.67559 1.15478 1.98816C0.842221 2.30072 0.666626 2.72464 0.666626 3.16667V5.66667H17.3333Z" fill="url(#paint2_linear_8493_2491)"/>
<defs>
<linearGradient id="paint0_linear_8493_2491" x1="4.41659" y1="0.25" x2="4.41659" y2="2.75" gradientUnits="userSpaceOnUse">
<stop stop-color="#50D4FB"/>
<stop offset="1" stop-color="#3AA5E3"/>
</linearGradient>
<linearGradient id="paint1_linear_8493_2491" x1="13.5833" y1="0.25" x2="13.5833" y2="2.75" gradientUnits="userSpaceOnUse">
<stop stop-color="#50D4FB"/>
<stop offset="1" stop-color="#3AA5E3"/>
</linearGradient>
<linearGradient id="paint2_linear_8493_2491" x1="8.99996" y1="1.5" x2="8.99996" y2="17.75" gradientUnits="userSpaceOnUse">
<stop stop-color="#50D4FB"/>
<stop offset="1" stop-color="#3AA5E3"/>
</linearGradient>
</defs>
</svg>
