<svg width="25" height="24" viewBox="0 0 25 24" fill="none" xmlns="http://www.w3.org/2000/svg">
<path d="M8.5293 1.8053H10.3627C14.2597 1.8053 17.4189 4.96448 17.4189 8.86153V21.1298H1.47302V8.86153C1.47302 4.96448 4.63221 1.8053 8.5293 1.8053Z" fill="#544F57"/>
<path d="M9.08986 1.80518C7.57524 1.80518 6.34786 4.9645 6.34786 8.86174V21.1298H1.47314V8.86174C1.47314 4.9645 4.63247 1.80518 8.52919 1.80518H9.08986Z" fill="#454045"/>
<path d="M15.3434 23.9312H3.54956L3.83728 22.53C4.0739 21.3763 4.97287 20.4994 6.08831 20.2633C6.28749 20.221 6.49056 20.1998 6.69417 20.2H12.1988C12.4055 20.2 12.6082 20.2216 12.8041 20.2633C13.9196 20.4994 14.819 21.3763 15.0557 22.53L15.3434 23.9312Z" fill="#DD636E"/>
<path d="M7.81133 20.2C7.68861 20.2 7.56833 20.2216 7.45194 20.2633C6.78913 20.4994 6.25546 21.3763 6.11455 22.53L5.94369 23.9312H3.54932L3.83704 22.53C4.07366 21.3763 4.97263 20.4994 6.08807 20.2633C6.28724 20.221 6.49031 20.1998 6.69393 20.2H7.81133Z" fill="#DA4A54"/>
<path d="M11.0778 17.4751V20.1999C11.0778 21.1008 10.3473 21.8314 9.44641 21.8314C8.545 21.8314 7.81445 21.1008 7.81445 20.1999V17.4751H11.0778Z" fill="#FFCBBE"/>
<path d="M9.97925 21.7424C9.80784 21.8014 9.62782 21.8314 9.44656 21.8313C8.54516 21.8313 7.81461 21.1008 7.81461 20.1999V17.475H8.87998V20.1999C8.87998 20.9147 9.3395 21.522 9.97925 21.7424ZM2.63005 15.2062C1.45367 15.2062 0.5 14.2526 0.5 13.0761C0.5 12.9142 0.518047 12.7565 0.552266 12.605C0.828594 11.3812 2.63005 11.5819 2.63005 12.8365H16.2625C16.2625 11.5819 18.0639 11.3812 18.3403 12.605C18.3751 12.7596 18.3926 12.9176 18.3925 13.0761C18.3925 14.2526 17.4388 15.2062 16.2625 15.2062" fill="#EAAC9D"/>
<path d="M2.63044 13.8732C2.57237 13.8733 2.51513 13.8594 2.46357 13.8327C2.412 13.806 2.36763 13.7673 2.33419 13.7198C2.32646 13.7092 1.9914 13.252 1.63716 13.3949C1.54809 13.4309 1.44839 13.4299 1.36 13.3923C1.2716 13.3548 1.20176 13.2836 1.16583 13.1945C1.14804 13.1504 1.1391 13.1032 1.13954 13.0557C1.13998 13.0081 1.14978 12.9611 1.16839 12.9173C1.187 12.8736 1.21405 12.8339 1.24799 12.8006C1.28194 12.7673 1.32211 12.741 1.36622 12.7232C1.74071 12.5721 2.14857 12.6328 2.51443 12.8944C2.76085 13.0706 2.91085 13.2804 2.92716 13.3038C2.96504 13.358 2.98732 13.4217 2.99158 13.4877C2.99585 13.5537 2.98193 13.6197 2.95135 13.6784C2.92077 13.7371 2.87469 13.7863 2.81811 13.8206C2.76153 13.855 2.69663 13.8732 2.63044 13.8732ZM16.2622 13.8732C16.196 13.8732 16.1311 13.855 16.0746 13.8206C16.018 13.7863 15.9719 13.7371 15.9414 13.6784C15.9108 13.6197 15.8969 13.5537 15.9012 13.4877C15.9054 13.4216 15.9277 13.358 15.9656 13.3038C15.9819 13.2804 16.1319 13.0706 16.3783 12.8944C16.7442 12.6329 17.152 12.5721 17.5265 12.7232C17.6144 12.7599 17.6842 12.8298 17.7209 12.9177C17.7576 13.0056 17.7582 13.1044 17.7226 13.1928C17.687 13.2811 17.618 13.3518 17.5306 13.3897C17.4432 13.4275 17.3444 13.4294 17.2556 13.3949C16.8988 13.2508 16.5629 13.7136 16.5596 13.7183C16.5262 13.7662 16.4817 13.8053 16.4299 13.8323C16.3781 13.8593 16.3206 13.8733 16.2622 13.8732Z" fill="#DF9380"/>
<path d="M7.81445 17.4751H11.0778V19.9853H7.81445V17.4751Z" fill="#EAAC9D"/>
<path d="M16.2622 10.4098V14.1538C16.2622 16.8973 14.0382 19.1218 11.2942 19.1218H7.59776C4.85426 19.1218 2.62976 16.8978 2.62976 14.1538V10.4525C3.47567 10.4279 4.63976 10.2836 5.89367 10.0288C8.46335 9.5064 11.413 8.51907 12.7853 7.14685C12.7853 7.14685 14.1427 9.92077 16.2622 10.4098Z" fill="#FFCBBE"/>
<path d="M10.8617 19.1217H7.59776C4.85426 19.1217 2.62976 16.8977 2.62976 14.1537V10.4524C3.47567 10.4278 4.63976 10.2835 5.89367 10.0287V14.1537C5.89367 16.8972 8.1177 19.1217 10.8617 19.1217Z" fill="#EAAC9D"/>
<path d="M10.7388 16.2765C10.6675 16.2765 10.5978 16.2555 10.5384 16.2161C10.479 16.1766 10.4326 16.1206 10.4049 16.0549C10.3256 15.8661 10.1923 15.7049 10.0217 15.5916C9.85103 15.4783 9.65073 15.418 9.44592 15.4182C9.02639 15.4182 8.64998 15.6681 8.48695 16.0549C8.44964 16.1434 8.3787 16.2135 8.28973 16.2497C8.20076 16.2859 8.10104 16.2853 8.01253 16.2479C7.92401 16.2106 7.85394 16.1397 7.81773 16.0507C7.78152 15.9617 7.78214 15.862 7.81945 15.7735C7.9539 15.4533 8.18004 15.1799 8.46942 14.9878C8.75881 14.7957 9.09853 14.6934 9.44587 14.6938C9.79321 14.6934 10.1329 14.7957 10.4223 14.9878C10.7117 15.1799 10.9378 15.4533 11.0723 15.7735C11.0955 15.8286 11.1048 15.8885 11.0992 15.948C11.0937 16.0075 11.0735 16.0647 11.0405 16.1145C11.0074 16.1643 10.9626 16.2051 10.91 16.2334C10.8573 16.2617 10.7985 16.2765 10.7388 16.2765Z" fill="#DD636E"/>
<path d="M13.4613 15.4268C14.0776 15.4268 14.5771 15.123 14.5771 14.7483C14.5771 14.3736 14.0776 14.0698 13.4613 14.0698C12.8451 14.0698 12.3456 14.3736 12.3456 14.7483C12.3456 15.123 12.8451 15.4268 13.4613 15.4268Z" fill="#E490B7"/>
<path d="M5.4312 15.4268C6.04742 15.4268 6.54696 15.123 6.54696 14.7483C6.54696 14.3736 6.04742 14.0698 5.4312 14.0698C4.81497 14.0698 4.31543 14.3736 4.31543 14.7483C4.31543 15.123 4.81497 15.4268 5.4312 15.4268Z" fill="#E490B7"/>
<path d="M10.1101 13.7412H8.78257C8.68652 13.7412 8.5944 13.703 8.52648 13.6351C8.45857 13.5672 8.42041 13.4751 8.42041 13.379C8.42041 13.283 8.45857 13.1908 8.52648 13.1229C8.5944 13.055 8.68652 13.0168 8.78257 13.0168H10.1101C10.3101 13.0168 10.4722 13.179 10.4722 13.379C10.4722 13.579 10.3101 13.7412 10.1101 13.7412Z" fill="#EAAC9D"/>
<path d="M13.2674 13.9492C13.1896 13.9492 13.1139 13.9241 13.0515 13.8776L11.3965 12.6467C11.3404 12.6049 11.2975 12.5477 11.2731 12.4821C11.2487 12.4164 11.2439 12.3451 11.2592 12.2768C11.2746 12.2085 11.3094 12.1461 11.3594 12.0971C11.4095 12.0482 11.4727 12.0148 11.5413 12.001L13.7503 11.5576C13.8445 11.5386 13.9423 11.5579 14.0223 11.6111C14.1022 11.6643 14.1578 11.7472 14.1767 11.8413C14.1956 11.9355 14.1763 12.0333 14.1231 12.1133C14.0699 12.1933 13.9871 12.2488 13.8929 12.2678L12.4817 12.5511L13.4838 13.2964C13.5449 13.3418 13.5901 13.4054 13.613 13.478C13.636 13.5506 13.6354 13.6287 13.6114 13.701C13.5875 13.7732 13.5413 13.8361 13.4796 13.8807C13.4178 13.9253 13.3435 13.9492 13.2674 13.9492ZM5.62455 13.9492C5.54837 13.9492 5.47412 13.9253 5.41234 13.8807C5.35055 13.8362 5.3044 13.7733 5.28043 13.7009C5.25647 13.6286 5.25591 13.5506 5.27885 13.478C5.30178 13.4053 5.34703 13.3418 5.40817 13.2963L6.41027 12.551L4.999 12.2677C4.95237 12.2583 4.90804 12.2399 4.86854 12.2134C4.82904 12.1869 4.79515 12.1529 4.7688 12.1133C4.74245 12.0737 4.72415 12.0293 4.71496 11.9826C4.70577 11.9359 4.70586 11.8879 4.71522 11.8413C4.72459 11.7947 4.74305 11.7503 4.76954 11.7108C4.79604 11.6713 4.83006 11.6374 4.86966 11.6111C4.90926 11.5847 4.95366 11.5664 5.00032 11.5572C5.04699 11.5481 5.09501 11.5481 5.14164 11.5575L7.35058 12.0009C7.41923 12.0147 7.48242 12.0481 7.53249 12.0971C7.58255 12.146 7.61736 12.2084 7.63268 12.2768C7.648 12.3451 7.64318 12.4164 7.61882 12.482C7.59445 12.5477 7.55157 12.6049 7.49538 12.6466L5.84041 13.8775C5.77807 13.9241 5.70235 13.9492 5.62455 13.9492Z" fill="#DF9380"/>
<path d="M20.4502 0.0687256L24.5001 2.45893L20.3359 4.73162L21.846 5.62285L15.8576 8.40577L18.2441 4.9044L17.0772 4.21566L20.4502 0.0687256ZM14.8312 0.624897L11.5347 0.593632L13.2117 3.46552L11.9825 3.45385L14.57 7.29249L14.405 4.32657L15.3548 4.33557L14.8312 0.624897Z" fill="#F4DD45"/>
</svg>
