<svg width="25" height="24" viewBox="0 0 25 24" fill="none" xmlns="http://www.w3.org/2000/svg">
<g clip-path="url(#clip0_8493_603)">
<path d="M23.875 22H5.875C5.07935 22 4.31629 21.6839 3.75368 21.1213C3.19107 20.5587 2.875 19.7956 2.875 19V1C2.875 0.734784 2.76964 0.48043 2.58211 0.292893C2.39457 0.105357 2.14022 0 1.875 0C1.60978 0 1.35543 0.105357 1.16789 0.292893C0.980357 0.48043 0.875 0.734784 0.875 1L0.875 19C0.876588 20.3256 1.40388 21.5964 2.34122 22.5338C3.27856 23.4711 4.54941 23.9984 5.875 24H23.875C24.1402 24 24.3946 23.8946 24.5821 23.7071C24.7696 23.5196 24.875 23.2652 24.875 23C24.875 22.7348 24.7696 22.4804 24.5821 22.2929C24.3946 22.1054 24.1402 22 23.875 22Z" fill="#252525"/>
<path d="M6.875 20C7.14022 20 7.39457 19.8946 7.58211 19.7071C7.76964 19.5196 7.875 19.2652 7.875 19V12C7.875 11.7348 7.76964 11.4804 7.58211 11.2929C7.39457 11.1054 7.14022 11 6.875 11C6.60978 11 6.35543 11.1054 6.16789 11.2929C5.98036 11.4804 5.875 11.7348 5.875 12V19C5.875 19.2652 5.98036 19.5196 6.16789 19.7071C6.35543 19.8946 6.60978 20 6.875 20Z" fill="#252525"/>
<path d="M10.875 10V19C10.875 19.2652 10.9804 19.5196 11.1679 19.7071C11.3554 19.8946 11.6098 20 11.875 20C12.1402 20 12.3946 19.8946 12.5821 19.7071C12.7696 19.5196 12.875 19.2652 12.875 19V10C12.875 9.73478 12.7696 9.48043 12.5821 9.29289C12.3946 9.10536 12.1402 9 11.875 9C11.6098 9 11.3554 9.10536 11.1679 9.29289C10.9804 9.48043 10.875 9.73478 10.875 10Z" fill="#252525"/>
<path d="M15.875 13V19C15.875 19.2652 15.9804 19.5196 16.1679 19.7071C16.3554 19.8946 16.6098 20 16.875 20C17.1402 20 17.3946 19.8946 17.5821 19.7071C17.7696 19.5196 17.875 19.2652 17.875 19V13C17.875 12.7348 17.7696 12.4804 17.5821 12.2929C17.3946 12.1054 17.1402 12 16.875 12C16.6098 12 16.3554 12.1054 16.1679 12.2929C15.9804 12.4804 15.875 12.7348 15.875 13Z" fill="#252525"/>
<path d="M20.875 9V19C20.875 19.2652 20.9804 19.5196 21.1679 19.7071C21.3554 19.8946 21.6098 20 21.875 20C22.1402 20 22.3946 19.8946 22.5821 19.7071C22.7696 19.5196 22.875 19.2652 22.875 19V9C22.875 8.73478 22.7696 8.48043 22.5821 8.29289C22.3946 8.10536 22.1402 8 21.875 8C21.6098 8 21.3554 8.10536 21.1679 8.29289C20.9804 8.48043 20.875 8.73478 20.875 9Z" fill="#252525"/>
<path d="M6.87503 9.00004C7.14023 8.99998 7.39454 8.89459 7.58203 8.70704L11.168 5.12104C11.3586 4.93947 11.6118 4.83818 11.875 4.83818C12.1383 4.83818 12.3914 4.93947 12.582 5.12104L14.754 7.29304C15.3166 7.85545 16.0795 8.1714 16.875 8.1714C17.6705 8.1714 18.4334 7.85545 18.996 7.29304L24.582 1.70704C24.7642 1.51844 24.865 1.26584 24.8627 1.00364C24.8604 0.741443 24.7553 0.49063 24.5698 0.305222C24.3844 0.119814 24.1336 0.0146453 23.8714 0.0123669C23.6092 0.0100885 23.3566 0.110883 23.168 0.293041L17.582 5.87804C17.3945 6.06551 17.1402 6.17083 16.875 6.17083C16.6099 6.17083 16.3556 6.06551 16.168 5.87804L13.996 3.70704C13.4334 3.14463 12.6705 2.82868 11.875 2.82868C11.0795 2.82868 10.3166 3.14463 9.75403 3.70704L6.16803 7.29304C6.02822 7.43289 5.93302 7.61106 5.89445 7.80501C5.85588 7.99896 5.87568 8.2 5.95135 8.3827C6.02702 8.5654 6.15516 8.72156 6.31957 8.83144C6.48398 8.94133 6.67728 9 6.87503 9.00004Z" fill="#252525"/>
</g>
<defs>
<clipPath id="clip0_8493_603">
<rect width="24" height="24" fill="white" transform="translate(0.875)"/>
</clipPath>
</defs>
</svg>
