<svg width="25" height="24" viewBox="0 0 25 24" fill="none" xmlns="http://www.w3.org/2000/svg">
<path d="M19.125 2H18.125V1C18.125 0.448 17.677 0 17.125 0C16.573 0 16.125 0.448 16.125 1V2H8.125V1C8.125 0.448 7.677 0 7.125 0C6.573 0 6.125 0.448 6.125 1V2H5.125C2.368 2 0.125 4.243 0.125 7V19C0.125 21.757 2.368 24 5.125 24H19.125C21.882 24 24.125 21.757 24.125 19V7C24.125 4.243 21.882 2 19.125 2ZM5.125 4H19.125C20.779 4 22.125 5.346 22.125 7V8H2.125V7C2.125 5.346 3.471 4 5.125 4ZM19.125 22H5.125C3.471 22 2.125 20.654 2.125 19V10H22.125V19C22.125 20.654 20.779 22 19.125 22ZM16.125 16C16.125 16.552 15.677 17 15.125 17H9.125C8.573 17 8.125 16.552 8.125 16C8.125 15.448 8.573 15 9.125 15H15.125C15.677 15 16.125 15.448 16.125 16Z" fill="#252525"/>
</svg>
