<svg width="25" height="24" viewBox="0 0 25 24" fill="none" xmlns="http://www.w3.org/2000/svg">
<g clip-path="url(#clip0_8493_589)">
<path d="M16.856 12.534C16.856 14.413 14.491 16.697 13.19 17.759C12.701 18.158 12.011 18.158 11.522 17.759C10.221 16.697 7.856 14.413 7.856 12.534C7.856 11.167 8.863 10.059 10.106 10.059C11.349 10.059 12.356 11.167 12.356 12.534C12.356 11.167 13.363 10.059 14.606 10.059C15.849 10.059 16.856 11.167 16.856 12.534ZM24.375 9.94497V18.559C24.375 21.591 21.907 24.059 18.875 24.059H5.876C2.843 24.06 0.376001 21.592 0.376001 18.56V9.94597C0.376001 8.11497 1.282 6.41097 2.8 5.38697L9.299 0.999969C11.168 -0.26203 13.582 -0.26203 15.451 0.999969L19.375 3.64797V2.55897C19.375 1.73097 20.047 1.05897 20.875 1.05897C21.703 1.05897 22.375 1.73097 22.375 2.55897V5.70197C23.636 6.73997 24.375 8.29097 24.375 9.94497ZM22.375 8.99997C22.375 8.16797 20.566 6.96497 19.875 6.49997L13.875 2.49997C13.45 2.21397 12.861 1.99997 12.375 1.99997C11.889 1.99997 10.53 2.71397 10.106 2.99997L4.375 6.99997C3.685 7.46597 2.375 9.11297 2.375 9.94497V18.5C2.375 19.879 3.997 22 5.375 22H19.375C20.754 22 22.375 19.938 22.375 18.559V8.99997Z" fill="url(#paint0_linear_8493_589)"/>
</g>
<defs>
<linearGradient id="paint0_linear_8493_589" x1="12.3755" y1="0.0534668" x2="12.3755" y2="24.059" gradientUnits="userSpaceOnUse">
<stop stop-color="#50D4FB"/>
<stop offset="1" stop-color="#3AA5E3"/>
</linearGradient>
<clipPath id="clip0_8493_589">
<rect width="24" height="24" fill="white" transform="translate(0.375)"/>
</clipPath>
</defs>
</svg>
