<svg width="25" height="24" viewBox="0 0 25 24" fill="none" xmlns="http://www.w3.org/2000/svg">
<g clip-path="url(#clip0_8493_613)">
<path d="M12.625 0C10.2516 0 7.93155 0.703788 5.95816 2.02236C3.98477 3.34094 2.4467 5.21509 1.53845 7.4078C0.630199 9.60051 0.392559 12.0133 0.855582 14.3411C1.3186 16.6689 2.46149 18.8071 4.13972 20.4853C5.81795 22.1635 7.95615 23.3064 10.2839 23.7694C12.6117 24.2324 15.0245 23.9948 17.2172 23.0866C19.4099 22.1783 21.2841 20.6402 22.6026 18.6668C23.9212 16.6935 24.625 14.3734 24.625 12C24.6216 8.81846 23.3562 5.76821 21.1065 3.51852C18.8568 1.26883 15.8065 0.00344108 12.625 0ZM12.625 22C10.6472 22 8.71379 21.4135 7.0693 20.3147C5.42481 19.2159 4.14309 17.6541 3.38621 15.8268C2.62933 13.9996 2.4313 11.9889 2.81715 10.0491C3.203 8.10929 4.15541 6.32746 5.55394 4.92893C6.95246 3.53041 8.73429 2.578 10.6741 2.19215C12.6139 1.8063 14.6246 2.00433 16.4518 2.7612C18.2791 3.51808 19.8409 4.79981 20.9397 6.4443C22.0385 8.08879 22.625 10.0222 22.625 12C22.6221 14.6513 21.5676 17.1931 19.6929 19.0679C17.8181 20.9426 15.2763 21.9971 12.625 22Z" fill="#252525"/>
<path d="M13.342 5.06295C12.7653 4.95788 12.1726 4.98084 11.6058 5.1302C11.039 5.27955 10.5119 5.55166 10.0619 5.92726C9.61188 6.30286 9.24991 6.77278 9.00161 7.30375C8.75331 7.83473 8.62474 8.41379 8.625 8.99995C8.625 9.26517 8.73036 9.51953 8.91789 9.70706C9.10543 9.8946 9.35978 9.99995 9.625 9.99995C9.89022 9.99995 10.1446 9.8946 10.3321 9.70706C10.5196 9.51953 10.625 9.26517 10.625 8.99995C10.6247 8.70573 10.6894 8.41507 10.8144 8.14871C10.9394 7.88235 11.1216 7.64684 11.348 7.45898C11.5745 7.27112 11.8396 7.13554 12.1244 7.0619C12.4093 6.98826 12.7069 6.97838 12.996 7.03295C13.391 7.10964 13.7543 7.30234 14.0392 7.58644C14.3242 7.87055 14.5181 8.23316 14.596 8.62795C14.6747 9.04236 14.6204 9.47103 14.4408 9.85269C14.2612 10.2344 13.9655 10.5495 13.596 10.753C12.9842 11.1074 12.4786 11.6195 12.1319 12.2358C11.7853 12.852 11.6102 13.55 11.625 14.257V15C11.625 15.2652 11.7304 15.5195 11.9179 15.7071C12.1054 15.8946 12.3598 16 12.625 16C12.8902 16 13.1446 15.8946 13.3321 15.7071C13.5196 15.5195 13.625 15.2652 13.625 15V14.257C13.6125 13.909 13.6918 13.5638 13.8551 13.2562C14.0183 12.9487 14.2597 12.6896 14.555 12.505C15.2795 12.107 15.863 11.4944 16.2251 10.7514C16.5872 10.0083 16.7103 9.17131 16.5773 8.35548C16.4443 7.53965 16.0618 6.78505 15.4825 6.19545C14.9032 5.60585 14.1554 5.21022 13.342 5.06295Z" fill="#252525"/>
<path d="M13.625 18C13.625 17.4477 13.1773 17 12.625 17C12.0727 17 11.625 17.4477 11.625 18C11.625 18.5523 12.0727 19 12.625 19C13.1773 19 13.625 18.5523 13.625 18Z" fill="#252525"/>
</g>
<defs>
<clipPath id="clip0_8493_613">
<rect width="24" height="24" fill="white" transform="translate(0.625)"/>
</clipPath>
</defs>
</svg>
