<svg width="23" height="24" viewBox="0 0 23 24" fill="none" xmlns="http://www.w3.org/2000/svg">
<path fill-rule="evenodd" clip-rule="evenodd" d="M11.5 0C15.3391 0 18.4516 3.11203 18.4516 6.95109V11.6395H4.54846V6.95156C4.54846 3.11203 7.66096 0 11.5 0Z" fill="#3E3E42"/>
<path fill-rule="evenodd" clip-rule="evenodd" d="M11.5 0C15.3391 0 18.4516 3.11203 18.4516 6.95109V11.6395H11.5V0Z" fill="#2D2E30"/>
<path fill-rule="evenodd" clip-rule="evenodd" d="M16.5836 6.32435C16.6131 6.547 16.6286 6.77481 16.6286 7.00544C16.6286 9.16169 15.2973 11.0072 13.4125 11.7651V13.957L22.4022 15.3314V24H0.597778V15.3318L9.58747 13.9575V11.7656C7.70215 11.0076 6.37137 9.16216 6.37137 7.00591C6.37137 6.77481 6.38684 6.54747 6.41637 6.32481L6.43465 6.32528C6.50169 6.32763 6.56825 6.32903 6.63528 6.32903C8.62934 6.32903 10.4626 5.29497 11.5004 3.6145C12.5382 5.29497 14.3715 6.32903 16.3656 6.32903C16.4326 6.32903 16.4992 6.32763 16.5662 6.32528L16.5836 6.32435Z" fill="#F6DCCD"/>
<path fill-rule="evenodd" clip-rule="evenodd" d="M16.5836 6.32443C16.6132 6.54709 16.6286 6.7749 16.6286 7.00552C16.6286 9.11349 15.3564 10.9238 13.5386 11.7122C14.9088 10.7916 15.8106 9.22787 15.8106 7.45271C15.8106 7.22162 15.7952 6.99427 15.7656 6.77162L15.7474 6.77209C15.6803 6.77443 15.6138 6.77584 15.5467 6.77584C13.6924 6.77584 11.9777 5.88146 10.9117 4.4049C11.1283 4.16068 11.3256 3.8963 11.5 3.61365C12.5378 5.29412 14.3711 6.32818 16.3652 6.32818C16.4322 6.32818 16.4988 6.32677 16.5658 6.32443H16.5836ZM13.4125 11.7947V13.9571L22.4022 15.3315V15.9038C19.1331 15.4041 15.8636 14.904 12.5946 14.4043V12.2124C12.8805 12.098 13.1542 11.9574 13.4125 11.7947Z" fill="#F1CBBC"/>
<path fill-rule="evenodd" clip-rule="evenodd" d="M11.4756 22.2562C10.9979 18.3726 6.88606 20.6939 5.32934 14.6081L3.69856 14.8575C3.87668 18.9131 2.84356 21.9604 0.597778 24H22.3529C20.1062 21.959 19.0726 18.9094 19.2526 14.8504L17.6232 14.6011C16.0684 20.6958 11.9537 18.3712 11.4756 22.2562Z" fill="#ECEFF1"/>
</svg>
