<svg width="25" height="24" viewBox="0 0 25 24" fill="none" xmlns="http://www.w3.org/2000/svg">
<path d="M22.9285 10.6266C22.9285 9.93149 22.474 9.34274 21.846 9.14071C21.6439 8.51273 21.0552 8.05823 20.3601 8.05823C19.5664 8.05823 18.9115 8.65068 18.8125 9.41742C18.3985 9.59784 18.1089 10.0105 18.1089 10.491C18.1085 10.7418 18.1891 10.9861 18.3386 11.1875C18.2723 11.3368 18.2381 11.4983 18.2382 11.6617C18.2382 12.3083 18.7624 12.8324 19.409 12.8324C19.6499 12.8324 19.8737 12.7596 20.0599 12.6348C20.2524 12.764 20.479 12.8328 20.7108 12.8324C21.1904 12.8324 21.6023 12.544 21.7833 12.1312C22.4435 11.9491 22.9285 11.3447 22.9285 10.6266Z" fill="#FFE177"/>
<path d="M21.8459 9.14067C21.8009 9.00201 21.7366 8.87037 21.6549 8.74963C21.6718 8.87399 21.6813 9.00074 21.6813 9.12974C21.6813 10.6696 20.4331 11.9179 18.8932 11.9179C18.6725 11.9179 18.4581 11.8914 18.2522 11.843C18.3393 12.4034 18.824 12.8324 19.4089 12.8324C19.6498 12.8324 19.8736 12.7596 20.0598 12.6348C20.2523 12.7639 20.4789 12.8327 20.7107 12.8324C21.1903 12.8324 21.6023 12.5439 21.7832 12.1311C22.4434 11.9491 22.9284 11.3447 22.9284 10.6266C22.9284 9.93149 22.4739 9.34274 21.8459 9.14067Z" fill="#FFD15B"/>
<path d="M2.07153 10.6266C2.07153 9.93149 2.52603 9.34274 3.15402 9.14071C3.3561 8.51273 3.94485 8.05823 4.63996 8.05823C5.43364 8.05823 6.08849 8.65068 6.18749 9.41742C6.60153 9.59784 6.89113 10.0105 6.89113 10.491C6.89149 10.7418 6.81092 10.9861 6.66139 11.1875C6.72771 11.3368 6.76192 11.4983 6.7618 11.6617C6.7618 12.3083 6.23764 12.8324 5.59105 12.8324C5.35011 12.8324 5.12624 12.7596 4.9401 12.6348C4.74762 12.764 4.52099 12.8328 4.28919 12.8324C3.80966 12.8324 3.39767 12.544 3.21669 12.1312C2.55655 11.9491 2.07153 11.3447 2.07153 10.6266Z" fill="#FFE177"/>
<path d="M19.3203 0.00632312C18.7436 -0.0131769 18.1864 0.0583544 17.662 0.207698C17.0778 0.374058 16.4609 0.363792 15.8818 0.180136C15.5122 0.0628769 15.1268 0.00319413 14.739 0.00318249H10.261C9.87318 0.00318735 9.4877 0.0628864 9.11807 0.180182C8.53907 0.363792 7.92224 0.374058 7.33804 0.207698C6.81369 0.0584012 6.25654 -0.0131769 5.67993 0.00632312C2.79449 0.103823 0.524428 2.43595 0.500193 5.32298C0.488147 6.75801 1.03949 8.06423 1.94633 9.03374C2.02697 9.12017 2.07176 9.23401 2.07163 9.35221V10.6267L4.64005 8.05832H3.37851C3.24707 8.05832 3.12051 8.00423 3.03276 7.90635C2.39629 7.19643 2.02213 6.24675 2.06418 5.21132C2.14218 3.2916 3.66444 1.71534 5.58055 1.57471C5.62718 1.5713 5.67385 1.56873 5.72057 1.56698C6.33285 1.54415 6.76433 2.15662 6.55082 2.73089C6.3614 3.24013 6.26441 3.7791 6.26441 4.32243C6.2644 5.01189 6.42035 5.69243 6.72058 6.31309C7.02081 6.93375 7.45754 7.47846 7.99808 7.90645C8.38374 8.21179 8.64133 8.65027 8.72029 9.13579L9.01574 10.9524C9.15754 11.8244 9.00937 12.7251 8.56443 13.4883C8.27272 13.9887 8.10979 14.5468 8.10979 15.1354C8.10979 16.1152 8.56124 17.0106 9.30674 17.6958C9.91954 18.2591 10.3264 19.0111 10.46 19.8327L10.5823 20.5853C10.6002 20.6952 10.6566 20.7951 10.7413 20.8672C10.8261 20.9393 10.9337 20.9788 11.045 20.9789H11.9713L12.5064 20.6249L13.0288 20.9788H13.955C14.0663 20.9788 14.1739 20.9392 14.2587 20.8671C14.3435 20.795 14.3998 20.6951 14.4177 20.5853L14.5401 19.8327C14.6736 19.0111 15.0804 18.259 15.6933 17.6957C16.4388 17.0105 16.8903 16.1152 16.8903 15.1353C16.8903 14.5467 16.7273 13.9886 16.4356 13.4882C15.9907 12.725 15.8425 11.8244 15.9843 10.9523L16.2367 9.40068C16.3146 8.92185 16.6589 8.24939 17.002 7.90635C17.5425 7.47837 17.9792 6.93366 18.2795 6.31299C18.5797 5.69233 18.7357 5.0118 18.7356 4.32234C18.7356 3.7805 18.6392 3.243 18.4508 2.73496C18.2376 2.16 18.6667 1.54401 19.2795 1.56689C19.4125 1.57185 19.547 1.58371 19.6826 1.60298C21.5239 1.86506 22.8881 3.40635 22.9377 5.26551C22.9648 6.27989 22.5926 7.2089 21.9671 7.90645C21.8795 8.00423 21.7529 8.05818 21.6216 8.05818H20.36L22.9284 10.6266V9.35207C22.9283 9.23387 22.9731 9.12002 23.0537 9.0336C23.9605 8.06414 24.5118 6.75806 24.4999 5.32312C24.4757 2.43623 22.2058 0.103964 19.3203 0.00632312Z" fill="#FFC4C8"/>
<path d="M19.3182 0.00625965C18.7414 -0.0130529 18.1842 0.0587597 17.6597 0.208338C17.0738 0.3754 16.4503 0.358197 15.8689 0.176135C15.5235 0.0681374 15.1643 0.0103127 14.8024 0.00443152C15.6762 1.6632 16.1714 3.55235 16.1714 5.55743C16.1714 10.6396 12.9941 14.979 8.51782 16.6995C8.71896 17.0667 8.9884 17.4045 9.31381 17.7023C9.93396 18.2697 10.331 19.0404 10.4659 19.8701L10.5822 20.5853C10.6001 20.6951 10.6565 20.795 10.7412 20.8671C10.826 20.9392 10.9336 20.9788 11.0449 20.9788H11.9711L12.5063 20.6249L13.0287 20.9788H13.9549C14.0662 20.9788 14.1739 20.9392 14.2586 20.8671C14.3434 20.795 14.3997 20.6951 14.4176 20.5853L14.54 19.8326C14.6736 19.0111 15.0804 18.259 15.6932 17.6957C16.4387 17.0104 16.8902 16.1151 16.8902 15.1353C16.8902 14.5467 16.7273 13.9886 16.4355 13.4882C15.9906 12.7249 15.8424 11.8243 15.9842 10.9523L16.2366 9.40067C16.3144 8.92184 16.6588 8.24937 17.0019 7.90634C17.5424 7.47835 17.9791 6.93364 18.2794 6.31298C18.5796 5.69232 18.7355 5.01178 18.7355 4.32232C18.7355 3.77456 18.637 3.23126 18.4445 2.7184C18.2304 2.14756 18.6635 1.54526 19.2728 1.56659C19.2882 1.56715 19.3037 1.56776 19.3191 1.56851C21.2701 1.66132 22.8453 3.23932 22.9349 5.19045C22.9828 6.23403 22.6078 7.19168 21.9671 7.90638C21.8794 8.00417 21.7528 8.05817 21.6215 8.05817H20.3599L22.9284 10.6266V9.35206C22.9284 9.23384 22.9729 9.11993 23.0537 9.03363C23.9606 8.06407 24.5119 6.75776 24.4998 5.32263C24.4754 2.43509 22.2043 0.102822 19.3182 0.00625965Z" fill="#FDB4BA"/>
<path d="M17.1748 4.32231C17.1755 3.56714 16.8917 2.83941 16.3799 2.28413C16.1709 2.05743 15.9172 1.87643 15.6348 1.75251C15.3524 1.62859 15.0475 1.56444 14.7391 1.56409H10.2611C9.9527 1.56444 9.64775 1.62859 9.36538 1.75251C9.08301 1.87643 8.82933 2.05743 8.6203 2.28413C8.10848 2.8394 7.82468 3.56714 7.82544 4.32231C7.82544 5.24776 8.32644 6.01468 8.96718 6.68256C9.55358 7.29376 11.5244 9.15784 11.5244 10.4601C11.5244 11.8188 11.1994 12.2152 9.91302 14.2743C9.32929 15.2087 9.82293 16.0608 10.3632 16.5465C11.6413 17.8962 11.9713 19.6817 11.9713 20.9788H13.0288C13.0288 19.6817 13.3588 17.8962 14.6369 16.5465C15.1771 16.0608 15.6708 15.2087 15.0871 14.2743C13.8008 12.2152 13.4757 11.8188 13.4757 10.4601C13.4757 9.15784 15.4465 7.29376 16.0329 6.68256C16.6738 6.01473 17.1748 5.24776 17.1748 4.32231Z" fill="#FE646F"/>
<path d="M6.89122 10.491C6.89122 10.0105 6.60163 9.59784 6.18758 9.41742C6.11689 8.87015 5.76294 8.41185 5.27755 8.19421C5.48224 8.58943 5.58887 9.02808 5.58843 9.47315C5.58843 10.8555 4.58211 12.0023 3.26221 12.2225C3.46096 12.5857 3.84603 12.8324 4.28928 12.8324C4.52108 12.8328 4.74772 12.764 4.94019 12.6348C5.13268 12.764 5.35933 12.8328 5.59114 12.8324C6.23774 12.8324 6.76189 12.3083 6.76189 11.6617C6.76202 11.4983 6.72782 11.3368 6.66149 11.1875C6.81102 10.9861 6.89158 10.7418 6.89122 10.491Z" fill="#FFD15B"/>
<path d="M18.9391 23.9967C22.0104 23.9967 24.5001 21.507 24.5001 18.4357C24.5001 15.3645 22.0104 12.8748 18.9391 12.8748C15.8679 12.8748 13.3782 15.3645 13.3782 18.4357C13.3782 21.507 15.8679 23.9967 18.9391 23.9967Z" fill="#99E6FC"/>
<path d="M22.2242 13.9489C22.8992 14.8693 23.2982 16.005 23.2982 17.2339C23.2982 20.3052 20.8085 22.7949 17.7372 22.7949C16.5083 22.7949 15.3726 22.396 14.4521 21.7209C15.4641 23.1007 17.0968 23.9967 18.9391 23.9967C22.0103 23.9967 24.5 21.507 24.5 18.4358C24.5 16.5935 23.604 14.9608 22.2242 13.9489Z" fill="#62DBFB"/>
<path d="M19.4686 16.5438C19.1829 16.2581 19.1829 15.7947 19.4686 15.509L20.0895 14.8881C20.3752 14.6024 20.8385 14.6024 21.1243 14.8881C21.41 15.1739 21.41 15.6372 21.1243 15.923L20.5034 16.5438C20.2176 16.8296 19.7544 16.8296 19.4686 16.5438ZM20.1096 21.704C20.1096 22.1082 19.782 22.4358 19.3779 22.4358H18.4999C18.0958 22.4358 17.7682 22.1082 17.7682 21.704C17.7682 21.2999 18.0958 20.9723 18.4999 20.9723H19.378C19.7821 20.9724 20.1096 21.2999 20.1096 21.704ZM22.256 19.6065C21.8519 19.6065 21.5243 19.2789 21.5243 18.8748V17.9967C21.5243 17.5926 21.8519 17.265 22.256 17.265C22.6601 17.265 22.9877 17.5926 22.9877 17.9967V18.8748C22.9877 19.2789 22.6601 19.6065 22.256 19.6065ZM14.978 18.5662C14.6922 18.2805 14.6922 17.8172 14.978 17.5314L15.5988 16.9106C15.8846 16.6248 16.3479 16.6248 16.6337 16.9106C16.9194 17.1963 16.9194 17.6596 16.6337 17.9454L16.0128 18.5662C15.727 18.852 15.2637 18.852 14.978 18.5662ZM18.0451 18.6433C17.9755 18.6433 17.9076 18.6227 17.8497 18.5841C17.7919 18.5455 17.7469 18.4906 17.7203 18.4263C17.6936 18.3621 17.6867 18.2914 17.7002 18.2232C17.7138 18.155 17.7473 18.0924 17.7964 18.0432L18.2103 17.6293C18.2763 17.5634 18.3657 17.5263 18.4589 17.5263C18.5522 17.5263 18.6416 17.5634 18.7075 17.6293C18.7735 17.6952 18.8105 17.7847 18.8105 17.8779C18.8105 17.9711 18.7735 18.0606 18.7075 18.1265L18.2936 18.5404C18.261 18.5731 18.2223 18.599 18.1796 18.6167C18.137 18.6343 18.0912 18.6434 18.0451 18.6433ZM19.7858 19.3727C19.7396 19.3727 19.6939 19.3636 19.6513 19.3459C19.6086 19.3283 19.5699 19.3024 19.5372 19.2697C19.5046 19.2371 19.4787 19.1983 19.461 19.1557C19.4433 19.113 19.4342 19.0673 19.4343 19.0211V18.4358C19.4343 18.2416 19.5916 18.0842 19.7858 18.0842C19.98 18.0842 20.1374 18.2416 20.1374 18.4358V19.0211C20.1374 19.1143 20.1003 19.2038 20.0344 19.2697C19.9685 19.3356 19.8791 19.3727 19.7858 19.3727ZM16.6955 20.8167C16.6494 20.8168 16.6036 20.8077 16.561 20.79C16.5183 20.7723 16.4796 20.7464 16.4469 20.7138C16.4143 20.6811 16.3884 20.6424 16.3707 20.5997C16.3531 20.5571 16.344 20.5114 16.344 20.4652V19.8798C16.344 19.6856 16.5013 19.5282 16.6955 19.5282C16.8897 19.5282 17.0471 19.6856 17.0471 19.8798V20.4652C17.0471 20.5584 17.0101 20.6478 16.9441 20.7138C16.8782 20.7797 16.7888 20.8167 16.6955 20.8167ZM17.7059 16.0675C17.6597 16.0676 17.614 16.0585 17.5713 16.0408C17.5287 16.0232 17.4899 15.9973 17.4573 15.9646L17.0434 15.5507C16.9775 15.4847 16.9404 15.3953 16.9404 15.3021C16.9404 15.2088 16.9775 15.1194 17.0434 15.0535C17.1093 14.9875 17.1987 14.9505 17.292 14.9505C17.3852 14.9505 17.4747 14.9875 17.5406 15.0535L17.9545 15.4674C18.0037 15.5165 18.0371 15.5792 18.0507 15.6474C18.0643 15.7156 18.0573 15.7862 18.0307 15.8505C18.0041 15.9147 17.959 15.9696 17.9012 16.0083C17.8434 16.0469 17.7755 16.0675 17.7059 16.0675ZM21.2011 21.1016C21.1549 21.1016 21.1092 21.0926 21.0665 21.0749C21.0239 21.0572 20.9851 21.0313 20.9525 20.9986L20.5386 20.5847C20.5059 20.5521 20.48 20.5133 20.4624 20.4707C20.4447 20.428 20.4356 20.3823 20.4356 20.3361C20.4356 20.2899 20.4447 20.2442 20.4624 20.2016C20.48 20.1589 20.5059 20.1202 20.5386 20.0875C20.5712 20.0549 20.61 20.029 20.6526 20.0113C20.6953 19.9936 20.741 19.9845 20.7872 19.9845C20.8333 19.9845 20.8791 19.9936 20.9217 20.0113C20.9644 20.029 21.0031 20.0549 21.0358 20.0875L21.4497 20.5014C21.4988 20.5506 21.5323 20.6132 21.5459 20.6814C21.5595 20.7496 21.5525 20.8203 21.5259 20.8845C21.4993 20.9488 21.4542 21.0037 21.3964 21.0423C21.3386 21.0809 21.2706 21.1016 21.2011 21.1016Z" fill="#BBEC6C"/>
</svg>
