<svg width="19" height="24" viewBox="0 0 19 24" fill="none" xmlns="http://www.w3.org/2000/svg">
<path d="M11.974 24C11.986 24 11.9977 23.9971 12.0083 23.9915C12.0188 23.9859 12.0278 23.9778 12.0345 23.9679C12.0412 23.958 12.0453 23.9466 12.0466 23.9347C12.0478 23.9228 12.0462 23.9108 12.0417 23.8998C11.5051 22.5448 11.3823 21.0426 11.5919 19.583C11.9071 17.3869 13.132 15.3384 13.1283 13.1213C13.1252 11.2375 12.2272 9.39252 12.4884 7.52558C12.5991 6.73414 12.914 5.98494 13.1397 5.21661C13.3654 4.44824 13.4412 3.63608 13.2493 2.858C12.4481 -0.38992 8.29421 0.783877 7.6172 2.48005C7.35015 3.14905 6.84826 6.78252 7.74831 7.05913C8.59717 7.31999 9.62152 6.77197 9.62152 7.10614C9.62152 11.4528 5.50412 12.6761 4.21562 14.5273C3.94731 14.9127 4.43087 15.8452 5.06635 16.2653C5.07202 16.269 5.07671 16.274 5.08002 16.2799C5.08333 16.2857 5.08517 16.2923 5.08537 16.2991C5.08556 16.3058 5.08412 16.3125 5.08116 16.3186C5.0782 16.3246 5.07381 16.3299 5.06837 16.3339C3.41795 17.5441 2.2757 18.7562 2.14937 20.7597C2.07816 21.8894 2.33527 23.095 3.04468 23.9728C3.05865 23.9901 3.07984 24.0001 3.10206 24.0001L11.974 24Z" fill="#FFCEBF"/>
<path d="M13.1396 5.21653C13.3653 4.44816 13.4411 3.636 13.2491 2.85792C12.7977 1.02797 11.2821 0.601782 9.92358 0.881673C10.7733 1.0808 11.5082 1.67672 11.7996 2.85792C11.9915 3.63605 11.9157 4.4482 11.69 5.21653C11.4643 5.98491 11.1494 6.73411 11.0386 7.5255C10.7776 9.39239 11.6755 11.2374 11.6787 13.1212C11.6823 15.3383 10.4575 17.3868 10.1422 19.583C9.93268 21.0424 10.0554 22.5445 10.5919 23.8995C10.6111 23.9477 10.5762 24 10.5244 24H11.9739C12.0257 24 12.0606 23.9477 12.0415 23.8995C11.505 22.5445 11.3823 21.0425 11.5918 19.583C11.9071 17.3868 13.1319 15.3383 13.1282 13.1212C13.1251 11.2374 12.2271 9.39244 12.4882 7.5255C12.5989 6.73411 12.9139 5.98491 13.1396 5.21653Z" fill="#FFB09E"/>
<path d="M12.0417 23.8996C12.0605 23.9479 12.0257 24 11.974 24H3.10181C3.07959 24 3.05831 23.9899 3.04481 23.973C2.33503 23.0951 2.07796 21.8893 2.14945 20.7598C2.27554 18.7563 3.41779 17.5442 5.06836 16.334C5.07378 16.33 5.07816 16.3248 5.08111 16.3187C5.08407 16.3127 5.08552 16.306 5.08533 16.2992C5.08514 16.2925 5.08332 16.2859 5.08003 16.28C5.07674 16.2742 5.07208 16.2692 5.06643 16.2655C4.43057 15.8453 3.94739 14.9129 4.21556 14.527C4.64268 13.9132 5.3805 13.369 6.17634 12.7567L6.18262 12.7519C6.31598 12.6567 8.50917 11.1197 12.6993 10.2698C12.6993 10.2698 12.6993 10.2702 12.6998 10.2708C12.894 11.2163 13.1269 12.1637 13.1284 13.1213C13.1317 15.3383 11.9069 17.3868 11.5919 19.583C11.3821 21.0428 11.5049 22.5446 12.0417 23.8996Z" fill="#FEA3C6"/>
<path d="M6.31782 16.1513C6.36465 16.1388 6.39404 16.2002 6.35415 16.2278C6.03221 16.4506 5.42293 16.858 4.96454 17.0786C4.31513 17.391 3.87301 17.5122 2.89941 18.45C3.41499 17.658 4.16584 16.9955 5.06841 16.3339C5.07384 16.3299 5.07822 16.3247 5.08117 16.3186C5.08413 16.3125 5.08557 16.3059 5.08539 16.2991C5.0852 16.2924 5.08338 16.2858 5.08009 16.2799C5.0768 16.274 5.07213 16.269 5.06649 16.2653C5.06654 16.2654 5.6042 16.3428 6.31782 16.1513ZM11.592 19.5829C11.907 17.3866 13.1319 15.3382 13.1285 13.1212C13.127 12.1636 12.8941 11.2162 12.6999 10.2706C12.6994 10.2702 12.6994 10.2697 12.6994 10.2697C12.2357 10.3636 11.7748 10.4708 11.3173 10.5912C11.4943 11.4304 11.6776 12.2718 11.679 13.1212C11.6823 15.3382 10.4574 17.3866 10.1424 19.5828C9.93273 21.0426 10.0555 22.5444 10.5923 23.8994C10.6111 23.9477 10.5764 23.9999 10.5247 23.9999H11.9742C12.0259 23.9999 12.0607 23.9477 12.0419 23.8994C11.505 22.5445 11.3822 21.0427 11.592 19.5829Z" fill="#FE93BB"/>
<path d="M11.1441 0.000355394C11.1441 0.000355394 9.60051 -0.0483946 7.34245 0.996027C7.24309 1.04204 7.15673 1.11205 7.09116 1.19974C7.02559 1.28744 6.98287 1.39007 6.96684 1.49839L6.46949 4.86293C6.4684 4.87035 6.46911 4.87793 6.47155 4.88502C6.47399 4.89211 6.47809 4.89851 6.48352 4.90369C6.48895 4.90887 6.49554 4.91266 6.50274 4.91476C6.50994 4.91686 6.51754 4.91721 6.5249 4.91576L10.7715 4.07961C10.8018 4.0736 10.833 4.07428 10.863 4.08158C10.893 4.08889 10.9211 4.10264 10.9452 4.1219C10.9694 4.14115 10.989 4.16544 11.0028 4.19307C11.0166 4.2207 11.0242 4.251 11.0251 4.28187C11.0476 5.0644 11.284 7.40886 13.3014 7.56579C13.4467 7.57709 13.5542 7.43009 13.4941 7.2972C13.306 6.88118 13.0931 6.00921 13.7519 4.80448C14.6948 3.08028 14.755 0.000355394 11.1441 0.000355394Z" fill="#E19974"/>
<path d="M11.1321 0.000338251C11.1321 0.000338251 10.882 -0.00739612 10.4365 0.0511039C13.279 0.456713 13.1623 3.2101 12.2904 4.80446C11.7863 5.72631 11.7928 6.45301 11.9077 6.92996C12.2351 7.2721 12.6811 7.51839 13.2892 7.56573C13.4347 7.57707 13.5422 7.43003 13.4821 7.29709C13.2941 6.88107 13.0812 6.00915 13.74 4.80442C14.6828 3.08026 14.743 0.000338251 11.1321 0.000338251Z" fill="#DC8758"/>
<path d="M8.16079 13.4133C7.48433 14.7815 7.92023 17.3615 7.77529 19.3971C7.69902 20.4681 7.63166 21.0359 7.58498 21.3335C7.55568 21.5201 7.40554 21.6643 7.21794 21.6876L0.88771 22.4737C0.402647 22.5339 0.0858663 23.0189 0.234366 23.4843C0.265773 23.5828 0.31321 23.6855 0.38146 23.7907C0.423018 23.8549 0.479954 23.9076 0.547091 23.9442C0.614229 23.9807 0.689439 23.9999 0.765882 24H8.61421C9.15946 24 9.63168 23.6224 9.75159 23.0908C10.2329 20.9572 11.3614 15.6786 11.1576 13.9477C10.8999 11.7586 8.83724 12.045 8.16079 13.4133Z" fill="#FFCEBF"/>
<path d="M11.1576 13.9477C10.9724 12.3741 9.85456 12.0797 8.98929 12.5467C9.34728 12.7821 9.62393 13.2328 9.70807 13.9477C9.91184 15.6787 9.32309 20.2934 8.66098 22.7967C8.41938 23.71 7.70993 24 7.16468 24H0.765869H8.6142C9.15945 24 9.63167 23.6224 9.75157 23.0908C10.2329 20.9572 11.3614 15.6786 11.1576 13.9477Z" fill="#FFB09E"/>
<path d="M14.0085 16.4416C14.0634 16.4416 14.119 16.4288 14.171 16.4016L15.2822 15.8215C15.3648 15.7784 15.4269 15.7043 15.4549 15.6154L15.6909 14.866L16.7878 15.4051C16.834 15.4279 16.8848 15.4402 16.9363 15.4412C16.9879 15.4421 17.0391 15.4318 17.0862 15.4107C17.1333 15.3897 17.1752 15.3586 17.2089 15.3196C17.2426 15.2805 17.2673 15.2346 17.2813 15.1849L17.4982 14.4144L17.9716 14.1672C18.0542 14.1241 18.1164 14.0499 18.1443 13.9609C18.1722 13.872 18.1637 13.7756 18.1206 13.6929C18.0992 13.652 18.07 13.6157 18.0346 13.586C17.9992 13.5564 17.9583 13.534 17.9143 13.5202C17.8702 13.5063 17.8239 13.5013 17.7779 13.5054C17.7319 13.5095 17.6872 13.5226 17.6462 13.5439L17.0383 13.8613C16.9958 13.8835 16.9583 13.9142 16.928 13.9514C16.8978 13.9886 16.8755 14.0316 16.8625 14.0777L16.719 14.5879L15.6337 14.0544C15.5882 14.032 15.5385 14.0197 15.4878 14.0184C15.4372 14.017 15.3868 14.0267 15.3403 14.0467C15.2937 14.0666 15.252 14.0964 15.218 14.1339C15.184 14.1715 15.1585 14.2159 15.1433 14.2643L14.8279 15.2655L13.8456 15.7783C13.763 15.8214 13.7008 15.8956 13.6729 15.9846C13.645 16.0736 13.6535 16.17 13.6966 16.2526C13.7264 16.3096 13.7712 16.3574 13.8262 16.3907C13.8812 16.4241 13.9442 16.4417 14.0085 16.4416ZM17.4882 16.8742L17.1694 17.2981L16.3508 16.4086C16.3166 16.3712 16.2747 16.3416 16.228 16.3221C16.1812 16.3025 16.1307 16.2934 16.0801 16.2954C16.0295 16.2971 15.9798 16.3097 15.9345 16.3324C15.8892 16.3551 15.8494 16.3874 15.8177 16.4269L15.161 17.2466L14.0594 17.3697C14.0135 17.3748 13.9691 17.3889 13.9286 17.4112C13.8882 17.4335 13.8526 17.4636 13.8238 17.4996C13.7949 17.5357 13.7735 17.5771 13.7607 17.6214C13.7479 17.6658 13.7439 17.7122 13.749 17.7581C13.7541 17.804 13.7682 17.8485 13.7904 17.8889C13.8127 17.9294 13.8427 17.9651 13.8788 17.9939C13.9149 18.0227 13.9563 18.0441 14.0007 18.0569C14.0451 18.0697 14.0916 18.0736 14.1375 18.0684L15.3835 17.9291C15.476 17.9188 15.5607 17.8722 15.6189 17.7996L16.1106 17.1859L16.9379 18.0848C16.9728 18.1228 17.0156 18.1526 17.0633 18.1721C17.111 18.1916 17.1625 18.2004 17.214 18.1979C17.2655 18.1953 17.3158 18.1815 17.3613 18.1573C17.4069 18.1332 17.4465 18.0993 17.4775 18.0581L17.959 17.418L18.4899 17.3586C18.5358 17.3535 18.5802 17.3394 18.6207 17.3171C18.6611 17.2948 18.6967 17.2647 18.7256 17.2287C18.7544 17.1926 18.7758 17.1512 18.7886 17.1069C18.8014 17.0625 18.8054 17.0161 18.8003 16.9702C18.7787 16.7772 18.6047 16.6381 18.4118 16.6599L17.7301 16.7361C17.6825 16.7414 17.6365 16.7564 17.5949 16.7802C17.5533 16.8039 17.517 16.8359 17.4882 16.8742ZM17.9716 22.9122L17.4982 22.6651L17.2813 21.8946C17.2673 21.8449 17.2426 21.799 17.2089 21.7599C17.1752 21.7209 17.1333 21.6898 17.0862 21.6688C17.0391 21.6477 16.9879 21.6373 16.9363 21.6383C16.8848 21.6393 16.834 21.6516 16.7878 21.6744L15.6909 22.2135L15.4549 21.464C15.4269 21.3751 15.3648 21.301 15.2822 21.2579L14.171 20.6779C14.13 20.6565 14.0853 20.6434 14.0393 20.6393C13.9933 20.6352 13.947 20.6403 13.9029 20.6541C13.8589 20.6679 13.818 20.6903 13.7826 20.72C13.7472 20.7496 13.718 20.7859 13.6966 20.8269C13.6535 20.9095 13.645 21.0059 13.6729 21.0949C13.7008 21.1838 13.763 21.258 13.8456 21.3012L14.8279 21.8139L15.1433 22.8152C15.1585 22.8635 15.184 22.908 15.218 22.9456C15.252 22.9832 15.2937 23.0129 15.3403 23.0329C15.3868 23.0528 15.4372 23.0624 15.4878 23.0611C15.5385 23.0598 15.5882 23.0475 15.6337 23.0251L16.719 22.4916L16.8625 23.0018C16.8755 23.0479 16.8978 23.0909 16.928 23.1281C16.9583 23.1653 16.9958 23.196 17.0383 23.2181L17.6462 23.5355C17.6963 23.5618 17.7521 23.5755 17.8087 23.5755C17.8874 23.5756 17.9639 23.5493 18.0259 23.5008C18.0878 23.4522 18.1318 23.3843 18.1505 23.3078C18.1693 23.2314 18.1619 23.1508 18.1294 23.0791C18.097 23.0073 18.0414 22.9486 17.9716 22.9122ZM18.49 19.7208L17.959 19.6614L17.4776 19.0213C17.4466 18.9801 17.4069 18.9462 17.3614 18.9221C17.3158 18.8979 17.2655 18.8841 17.214 18.8815C17.1625 18.8791 17.1111 18.8879 17.0634 18.9075C17.0157 18.927 16.9729 18.9567 16.9379 18.9946L16.1106 19.8936L15.6189 19.2799C15.5607 19.2072 15.4761 19.1606 15.3836 19.1503L14.1375 19.011C13.9444 18.9891 13.7706 19.1284 13.7491 19.3213C13.744 19.3672 13.7479 19.4137 13.7607 19.458C13.7736 19.5024 13.795 19.5437 13.8238 19.5798C13.8526 19.6159 13.8883 19.6459 13.9287 19.6682C13.9691 19.6905 14.0135 19.7046 14.0594 19.7097L15.1611 19.8329L15.8178 20.6525C15.8494 20.6921 15.8893 20.7243 15.9346 20.747C15.9799 20.7697 16.0295 20.7824 16.0801 20.7841C16.1308 20.7859 16.1812 20.7766 16.2279 20.7571C16.2746 20.7375 16.3166 20.7081 16.3509 20.6708L17.1695 19.7813L17.4883 20.2053C17.5171 20.2435 17.5534 20.2755 17.595 20.2993C17.6366 20.323 17.6826 20.338 17.7302 20.3433L18.4119 20.4195C18.6045 20.4417 18.7788 20.3021 18.8004 20.1092C18.8107 20.0165 18.7838 19.9235 18.7256 19.8507C18.6674 19.7779 18.5826 19.7312 18.49 19.7208Z" fill="#FE99A0"/>
</svg>
