<svg width="21" height="20" viewBox="0 0 21 20" fill="none" xmlns="http://www.w3.org/2000/svg">
<g clip-path="url(#clip0_8481_3558)">
<path d="M17.5114 2.73798C16.5952 1.82298 15.115 1.82439 14.203 2.73396C13.2678 3.65357 13.2857 5.15369 14.1995 6.05103C15.1157 6.96603 16.596 6.96462 17.508 6.05505C18.4432 5.13541 18.4252 3.63529 17.5114 2.73798ZM5.74332 13.8339L5.01203 13.9151C4.55769 13.9661 4.1457 14.2092 3.8825 14.5823C3.6193 14.9548 3.5266 15.4229 3.62957 15.8663C3.67762 16.0758 3.56547 16.216 3.51512 16.2663C3.46363 16.3161 3.32285 16.4305 3.11457 16.3808C2.89461 16.3297 2.66632 16.3259 2.44478 16.3696C2.22324 16.4132 2.0135 16.5035 1.82941 16.6342C1.4575 16.898 1.21488 17.3094 1.16336 17.7638L1.08211 18.4951C1.04664 18.8166 1.27781 19.1062 1.59937 19.1422C1.93746 19.176 2.21281 18.9344 2.24711 18.6244L2.32836 17.8936C2.34668 17.7266 2.44851 17.6322 2.50687 17.5904C2.56523 17.5492 2.68539 17.4851 2.85133 17.5228C3.39262 17.6476 3.94996 17.4885 4.34363 17.0954C4.73617 16.7023 4.89637 16.145 4.77164 15.602C4.73387 15.44 4.79797 15.3176 4.83914 15.2592C4.88035 15.2003 4.97535 15.0985 5.14242 15.0801L5.87371 14.9989C6.19527 14.9628 6.42644 14.6733 6.39097 14.3517C6.35558 14.029 6.06949 13.7996 5.74332 13.8339ZM11.5432 14.663L10.8131 14.7443C10.5886 14.7693 10.3719 14.8414 10.1773 14.956C9.98262 15.0706 9.81437 15.225 9.68355 15.4092C9.42035 15.7811 9.32765 16.2497 9.42949 16.6955C9.47754 16.9044 9.36539 17.044 9.31504 17.0949C9.26582 17.1447 9.12621 17.2597 8.91562 17.2094C8.69564 17.1586 8.46743 17.155 8.24594 17.1987C8.02446 17.2424 7.81472 17.3324 7.63047 17.4628C7.25855 17.7266 7.01594 18.138 6.96441 18.5924L6.88316 19.3497C6.84769 19.6712 7.07887 19.9608 7.40043 19.9968C7.73851 20.0306 8.01386 19.789 8.04816 19.479L8.12941 18.7222C8.14773 18.5552 8.24957 18.4608 8.30793 18.419C8.36629 18.3778 8.48531 18.3142 8.65238 18.3514C9.19484 18.4756 9.75101 18.3171 10.1447 17.9234C10.5372 17.5297 10.6963 16.9724 10.5716 16.4317C10.5338 16.2686 10.5979 16.1456 10.6402 16.0872C10.6814 16.0283 10.7753 15.9276 10.9423 15.9093L11.6736 15.828C11.9952 15.792 12.2264 15.5024 12.1909 15.1809C12.1555 14.8587 11.8716 14.6304 11.5432 14.663ZM1.41859 12.824L1.49984 12.0933C1.51816 11.9262 1.62 11.8318 1.67836 11.79C1.73672 11.7488 1.86148 11.6847 2.02281 11.7224C2.5641 11.8489 3.12144 11.6875 3.51512 11.2938C3.90765 10.9013 4.06785 10.344 3.94312 9.80154C3.90535 9.63904 3.96945 9.51658 4.01066 9.45763C4.05187 9.39927 4.14683 9.29798 4.31394 9.27966L5.04523 9.19841C5.3668 9.16236 5.59797 8.87283 5.5625 8.55126C5.52703 8.22912 5.24664 7.99736 4.91476 8.03341C4.53008 8.12357 3.63223 7.96462 3.05394 8.78072C2.79074 9.15322 2.69805 9.62185 2.80101 10.0659C2.84906 10.2747 2.73691 10.4149 2.68656 10.4653C2.63508 10.5156 2.4966 10.6301 2.28601 10.5803C1.84086 10.4761 1.3739 10.5694 1.00086 10.8338C0.628944 11.0976 0.386327 11.509 0.334842 11.9634L0.253592 12.6947C0.218123 13.0162 0.449295 13.3058 0.770858 13.3418C1.10894 13.3756 1.3843 13.134 1.41859 12.824Z" fill="url(#paint0_linear_8481_3558)"/>
<path d="M14.9767 0C12.0587 0 9.70322 2.35547 9.70322 5.27344C9.70322 8.19141 12.0587 10.5469 14.9767 10.5469C17.8946 10.5469 20.2501 8.19141 20.2501 5.27344C20.2501 2.35547 17.8946 0 14.9767 0ZM17.0978 5.63672C16.4119 6.32254 15.3003 6.32363 14.6134 5.63672C13.9219 4.95703 13.9219 3.83199 14.6134 3.15234C15.2989 2.46664 16.4108 2.46523 17.0978 3.15234C17.7892 3.83199 17.7892 4.95699 17.0978 5.63672ZM5.49854 3.59375C5.82213 3.59375 6.08447 3.33141 6.08447 3.00781C6.08447 2.68422 5.82213 2.42188 5.49854 2.42188C5.17494 2.42188 4.9126 2.68422 4.9126 3.00781C4.9126 3.33141 5.1749 3.59375 5.49854 3.59375ZM17.2173 14.1406C16.8937 14.1406 16.6313 14.403 16.6313 14.7266C16.6313 15.0502 16.8937 15.3125 17.2173 15.3125C17.5409 15.3125 17.8032 15.0502 17.8032 14.7266C17.8032 14.403 17.5409 14.1406 17.2173 14.1406ZM13.7017 17.6562C13.3781 17.6562 13.1157 17.9186 13.1157 18.2422C13.1157 18.5658 13.3781 18.8281 13.7017 18.8281C14.0253 18.8281 14.2876 18.5658 14.2876 18.2422C14.2876 17.9186 14.0253 17.6562 13.7017 17.6562ZM1.98291 4.76562C1.65932 4.76562 1.39697 5.02797 1.39697 5.35156C1.39697 5.67516 1.65932 5.9375 1.98291 5.9375C2.3065 5.9375 2.56885 5.67516 2.56885 5.35156C2.56885 5.02797 2.3065 4.76562 1.98291 4.76562ZM5.80865 11.9308C4.96361 12.7758 4.63627 14.0738 5.39439 14.8307C6.16955 15.6059 7.48065 15.2301 8.29432 14.4164C9.10565 13.6062 9.4901 12.298 8.70857 11.5165C8.01279 10.8212 6.73904 11.0021 5.80865 11.9308ZM11.6085 12.7599C10.6793 13.6897 10.4985 14.9634 11.1943 15.6604C11.9684 16.433 13.2783 16.062 14.0954 15.245C15.0235 14.3163 15.2055 13.0425 14.5096 12.345C13.8138 11.6475 12.5389 11.8289 11.6085 12.7599ZM7.46576 8.61598C8.27709 7.80578 8.66154 6.49754 7.88002 5.71605C7.18424 5.02027 5.91049 5.20106 4.9801 6.13031C4.05084 7.05957 3.86889 8.33328 4.56584 9.03023C5.341 9.80543 6.65209 9.42965 7.46576 8.61598Z" fill="url(#paint1_linear_8481_3558)"/>
</g>
<defs>
<linearGradient id="paint0_linear_8481_3558" x1="1.10508" y1="18.8291" x2="17.3539" y2="2.58029" gradientUnits="userSpaceOnUse">
<stop stop-color="#FFC2CC"/>
<stop offset="1" stop-color="#FFF2F4"/>
</linearGradient>
<linearGradient id="paint1_linear_8481_3558" x1="5.10143" y1="14.5377" x2="18.4021" y2="1.23699" gradientUnits="userSpaceOnUse">
<stop stop-color="#FD3A84"/>
<stop offset="1" stop-color="#FFA68D"/>
</linearGradient>
<clipPath id="clip0_8481_3558">
<rect width="20" height="20" fill="white" transform="translate(0.25)"/>
</clipPath>
</defs>
</svg>
